<?xml version="1.0" standalone="no"?>
<!DOCTYPE svg PUBLIC "-//W3C//DTD SVG 20010904//EN"
 "http://www.w3.org/TR/2001/REC-SVG-20010904/DTD/svg10.dtd">
<svg version="1.0" xmlns="http://www.w3.org/2000/svg"
 width="4096.000000pt" height="4096.000000pt" viewBox="0 0 4096.000000 4096.000000"
 preserveAspectRatio="xMidYMid meet">

<g transform="translate(0.000000,4096.000000) scale(0.100000,-0.100000)"
fill="#000000" stroke="none">
<path d="M3680 37694 c-106 -71 -37 -175 200 -299 135 -71 194 -124 324 -292
59 -76 143 -181 187 -233 113 -135 163 -213 193 -305 15 -44 45 -107 67 -140
47 -71 63 -121 84 -262 12 -83 23 -119 50 -167 49 -89 62 -147 85 -386 23
-243 32 -305 66 -475 40 -195 45 -322 59 -1393 3 -216 10 -450 15 -520 5 -70
17 -289 25 -487 9 -198 20 -421 25 -495 6 -74 15 -220 20 -325 5 -104 11 -199
14 -210 2 -11 5 -24 5 -28 1 -5 6 -5 11 -2 13 8 13 504 0 765 -5 107 -14 429
-20 715 -5 286 -12 579 -15 650 -3 72 -10 240 -15 375 -6 134 -17 294 -25 355
-8 60 -17 218 -20 350 -4 139 -14 301 -25 385 -10 80 -22 172 -25 205 -3 33
-15 116 -25 185 -11 69 -29 200 -40 292 -20 174 -46 298 -61 298 -5 0 -9 -44
-9 -97 0 -53 -3 -93 -7 -90 -11 12 -32 141 -33 203 0 37 -7 74 -17 95 -10 20
-19 64 -20 108 -2 41 -5 77 -7 79 -2 2 -16 -9 -30 -25 -26 -27 -27 -27 -41 -9
-8 11 -15 39 -15 62 0 24 -6 49 -13 56 -8 7 -16 35 -19 61 -4 35 -13 54 -37
76 -19 18 -31 39 -31 55 0 15 -7 29 -15 32 -8 4 -15 16 -15 27 0 16 -3 18 -12
9 -19 -19 -26 -15 -53 28 -15 24 -25 54 -25 78 0 45 -14 62 -51 62 -27 0 -39
15 -39 51 0 14 -7 19 -25 19 -29 0 -47 34 -43 78 3 21 -5 30 -44 51 -36 19
-47 30 -42 43 4 12 0 18 -11 18 -12 0 -14 4 -5 19 15 28 13 31 -20 31 -22 0
-30 5 -30 18 0 13 -7 18 -22 18 -17 -1 -23 5 -23 21 0 12 -8 28 -19 36 -18 13
-17 15 10 36 27 22 36 23 120 18 79 -5 101 -10 163 -42 40 -20 91 -49 113 -66
48 -34 72 -39 31 -6 -37 30 -157 107 -167 107 -4 0 -50 20 -103 45 -52 25 -98
45 -102 45 -5 0 -48 18 -96 40 -48 23 -112 47 -143 55 -77 20 -181 20 -212 -1z
m370 -162 c0 -12 -46 -32 -71 -32 -12 0 -19 5 -17 12 7 20 88 38 88 20z"/>
<path d="M4592 37309 c2 -14 15 -25 40 -34 34 -11 37 -11 28 5 -9 16 -53 50
-65 50 -4 0 -5 -9 -3 -21z"/>
<path d="M4728 37208 c29 -29 61 -52 75 -54 l24 -2 -25 25 c-33 33 -102 83
-115 83 -5 0 13 -23 41 -52z"/>
<path d="M4875 37110 c3 -5 8 -10 11 -10 2 0 4 5 4 10 0 6 -5 10 -11 10 -5 0
-7 -4 -4 -10z"/>
<path d="M4910 37076 c0 -9 4 -16 8 -16 5 0 30 -21 56 -46 26 -25 50 -43 53
-41 6 7 -54 73 -88 98 -24 17 -29 18 -29 5z"/>
<path d="M5040 36941 c0 -12 9 -21 24 -25 37 -9 80 -50 101 -96 18 -40 37 -48
43 -18 3 15 -81 103 -116 122 -9 5 -21 15 -25 23 -12 19 -27 16 -27 -6z"/>
<path d="M5262 36748 c6 -16 36 -34 44 -25 9 9 -15 37 -33 37 -8 0 -13 -5 -11
-12z"/>
<path d="M5353 36678 c5 -14 1 -18 -19 -18 -14 0 -22 -4 -19 -10 3 -5 19 -10
36 -10 33 0 39 20 12 41 -15 12 -16 12 -10 -3z"/>
<path d="M5402 36631 c2 -7 7 -12 11 -12 12 1 9 15 -3 20 -7 2 -11 -2 -8 -8z"/>
<path d="M5440 36570 c-9 -18 -8 -20 15 -20 28 0 29 -3 15 -31 -10 -18 -9 -18
17 -7 15 7 30 13 32 15 6 4 -51 63 -61 63 -4 0 -12 -9 -18 -20z"/>
<path d="M4311 36561 c-25 -16 -6 -95 54 -223 32 -68 82 -174 111 -236 29 -62
64 -154 78 -205 32 -120 51 -164 77 -178 26 -13 30 -9 60 71 23 61 28 164 10
198 -6 11 -20 24 -31 27 -22 7 -66 69 -86 120 -7 17 -21 55 -33 85 -12 30 -30
68 -42 83 -44 59 -80 117 -109 172 -24 45 -64 96 -74 95 -1 0 -7 -4 -15 -9z"/>
<path d="M5560 36457 c0 -30 18 -47 50 -47 40 0 42 9 5 41 -39 35 -55 37 -55
6z"/>
<path d="M5675 36381 c-3 -6 -3 -21 1 -35 4 -18 15 -26 41 -31 41 -7 51 -2 33
20 -24 28 -68 56 -75 46z"/>
<path d="M5794 36264 c3 -9 6 -22 6 -30 0 -17 46 -19 56 -2 4 6 -3 19 -16 30
-28 23 -54 24 -46 2z"/>
<path d="M5897 36203 c-4 -3 -7 -19 -7 -34 0 -26 3 -28 41 -27 l41 0 -33 34
c-37 38 -34 36 -42 27z"/>
<path d="M6011 36066 c-10 -12 -6 -15 18 -21 17 -4 33 -11 36 -16 4 -5 18 -9
33 -9 l27 1 -33 29 c-35 33 -63 38 -81 16z"/>
<path d="M6159 35964 c22 -16 23 -17 5 -27 -17 -10 -16 -12 11 -18 17 -4 41
-10 55 -14 22 -6 20 -2 -17 34 -23 23 -50 41 -60 41 -14 0 -13 -3 6 -16z"/>
<path d="M6316 35841 c-3 -4 7 -14 22 -21 l27 -12 -25 -10 -25 -11 25 -7 c37
-12 70 -11 70 0 0 6 -6 10 -14 10 -7 0 -22 11 -32 25 -21 27 -41 38 -48 26z"/>
<path d="M6505 35650 c-4 -6 8 -10 29 -10 19 0 38 -5 41 -10 3 -6 21 -17 38
-26 31 -16 31 -15 -7 20 -39 36 -87 48 -101 26z"/>
<path d="M6690 35510 c0 -5 14 -10 31 -10 17 0 28 4 24 10 -3 6 -17 10 -31 10
-13 0 -24 -4 -24 -10z"/>
<path d="M6928 35378 c5 -5 16 -8 23 -6 8 3 3 7 -10 11 -17 4 -21 3 -13 -5z"/>
<path d="M18927 34043 c-3 -647 -10 -1204 -16 -1323 -14 -238 -47 -667 -61
-790 -23 -194 -31 -398 -37 -1025 -4 -503 -3 -681 7 -748 6 -48 15 -89 19 -92
19 -11 44 291 61 730 12 317 24 578 42 905 17 311 18 3434 2 3450 -9 9 -13
-267 -17 -1107z"/>
<path d="M6405 34600 c-34 -36 -28 -47 14 -26 32 17 103 13 128 -6 7 -6 14 -5
18 2 12 19 -3 40 -28 40 -13 0 -28 5 -35 12 -8 8 -15 8 -28 -3 -13 -11 -18
-11 -21 -1 -7 18 -17 15 -48 -18z"/>
<path d="M6652 34525 c-20 -10 -21 -13 -7 -19 26 -10 32 -7 38 14 6 23 2 23
-31 5z"/>
<path d="M6707 34489 c7 -7 15 -10 18 -7 3 3 -2 9 -12 12 -14 6 -15 5 -6 -5z"/>
<path d="M6816 34431 c-10 -16 20 -43 45 -39 l24 3 -22 23 c-24 23 -38 28 -47
13z"/>
<path d="M6897 34386 c-9 -22 40 -51 59 -35 21 17 17 29 -9 29 -13 0 -28 5
-34 11 -7 7 -12 6 -16 -5z"/>
<path d="M7033 34305 c-8 -22 6 -33 17 -15 13 20 12 30 0 30 -6 0 -13 -7 -17
-15z"/>
<path d="M7073 34276 c-13 -15 -7 -26 14 -26 7 0 13 9 13 20 0 23 -10 25 -27
6z"/>
<path d="M7120 34265 c0 -8 5 -15 10 -15 6 0 10 7 10 15 0 8 -4 15 -10 15 -5
0 -10 -7 -10 -15z"/>
<path d="M7150 34224 l-25 -14 27 0 c15 0 29 4 33 9 9 16 -9 18 -35 5z"/>
<path d="M7200 34170 c0 -5 5 -10 10 -10 6 0 10 5 10 10 0 6 -4 10 -10 10 -5
0 -10 -4 -10 -10z"/>
<path d="M7258 34163 c-26 -29 -23 -33 25 -32 23 1 32 4 20 6 -12 2 -23 13
-25 25 -3 20 -3 20 -20 1z"/>
<path d="M9214 33943 c-4 -109 -8 -407 -8 -663 -1 -256 -5 -471 -9 -477 -14
-21 -44 -15 -80 17 -39 34 -47 36 -47 14 0 -12 -6 -15 -25 -10 -38 10 -30 -7
25 -58 60 -53 152 -92 190 -79 60 20 72 107 44 313 -16 125 -24 693 -11 911 3
65 2 131 -3 150 -9 31 -46 79 -60 79 -4 0 -11 -89 -16 -197z"/>
<path d="M7430 34045 c-10 -12 -10 -19 -2 -27 14 -14 17 -11 26 20 8 25 -5 29
-24 7z"/>
<path d="M7481 34001 c-10 -7 -10 -10 -1 -16 6 -4 16 -3 22 3 13 13 -4 23 -21
13z"/>
<path d="M7535 33960 c-3 -5 -1 -10 4 -10 6 0 11 5 11 10 0 6 -2 10 -4 10 -3
0 -8 -4 -11 -10z"/>
<path d="M7620 33905 c0 -9 5 -15 11 -13 6 2 11 8 11 13 0 5 -5 11 -11 13 -6
2 -11 -4 -11 -13z"/>
<path d="M7700 33846 c0 -19 8 -27 36 -36 52 -17 69 3 20 24 -20 8 -36 20 -36
25 0 6 -4 11 -10 11 -5 0 -10 -11 -10 -24z"/>
<path d="M17466 33781 c-10 -16 12 -68 32 -76 10 -4 73 -11 142 -15 69 -5 135
-12 148 -15 30 -10 28 3 -3 15 -14 5 -25 16 -25 24 0 10 -12 13 -50 10 -29 -2
-50 1 -50 7 0 5 -11 7 -25 3 -16 -4 -25 -2 -25 5 0 6 -16 19 -35 28 -33 16
-36 16 -49 -3 -8 -10 -12 -22 -10 -26 2 -4 0 -9 -6 -13 -5 -3 -10 2 -10 12 0
28 -25 59 -34 44z"/>
<path d="M7800 33764 c0 -8 5 -12 10 -9 6 3 10 10 10 16 0 5 -4 9 -10 9 -5 0
-10 -7 -10 -16z"/>
<path d="M7876 33741 c-31 -6 -48 -31 -22 -31 24 0 66 19 66 30 0 11 0 11 -44
1z"/>
<path d="M7947 33683 c-4 -3 -7 -11 -7 -17 0 -6 5 -5 12 2 6 6 9 14 7 17 -3 3
-9 2 -12 -2z"/>
<path d="M7977 33646 c-6 -15 1 -26 15 -26 4 0 8 9 8 20 0 23 -15 27 -23 6z"/>
<path d="M8077 33604 c-8 -8 1 -24 14 -24 5 0 9 7 9 15 0 15 -12 20 -23 9z"/>
<path d="M8038 33593 c7 -3 16 -2 19 1 4 3 -2 6 -13 5 -11 0 -14 -3 -6 -6z"/>
<path d="M6333 33473 l-1 -68 8 60 c5 33 5 64 1 68 -4 4 -8 -23 -8 -60z"/>
<path d="M8160 33494 c0 -8 5 -12 10 -9 6 3 10 10 10 16 0 5 -4 9 -10 9 -5 0
-10 -7 -10 -16z"/>
<path d="M8300 33400 c0 -5 5 -10 11 -10 5 0 7 5 4 10 -3 6 -8 10 -11 10 -2 0
-4 -4 -4 -10z"/>
<path d="M31240 33391 c-7 -13 -7 -36 -1 -68 17 -85 32 -524 38 -1093 3 -305
6 -618 7 -696 1 -152 8 -174 53 -174 25 0 25 0 8 26 -20 31 -18 86 10 329 15
126 18 242 19 740 0 670 -9 902 -38 934 -25 28 -81 28 -96 2z"/>
<path d="M8340 33370 c0 -11 5 -20 10 -20 6 0 10 9 10 20 0 11 -4 20 -10 20
-5 0 -10 -9 -10 -20z"/>
<path d="M8476 33274 c-8 -21 -8 -24 3 -24 12 0 22 28 12 35 -5 3 -12 -2 -15
-11z"/>
<path d="M8571 33232 c-14 -26 -15 -25 16 -41 29 -15 42 -14 21 2 -9 7 -18 24
-20 37 l-3 25 -14 -23z"/>
<path d="M8660 33171 c0 -11 5 -23 10 -26 6 -3 10 3 10 14 0 11 -4 23 -10 26
-5 3 -10 -3 -10 -14z"/>
<path d="M8703 33138 c-8 -18 -9 -29 -2 -34 15 -9 21 1 17 32 l-3 29 -12 -27z"/>
<path d="M6290 33116 c0 -13 -5 -26 -12 -28 -12 -4 -71 -307 -87 -453 -15
-130 -21 -349 -23 -905 -2 -485 -1 -530 16 -587 10 -35 21 -63 25 -63 3 0 6
282 6 628 0 587 2 640 23 827 21 181 42 374 59 543 3 34 3 62 -1 62 -3 0 -6
-11 -6 -24z"/>
<path d="M8746 33104 c-9 -25 -7 -34 8 -34 19 0 28 14 20 34 -8 20 -20 20 -28
0z"/>
<path d="M8799 33098 c-1 -7 -1 -19 0 -25 1 -7 -6 -13 -15 -13 -16 0 -16 -2 1
-20 10 -11 22 -17 26 -14 12 7 11 84 -1 84 -5 0 -11 -6 -11 -12z"/>
<path d="M8840 33024 c0 -10 33 -54 73 -96 62 -66 76 -76 100 -73 40 5 44 12
19 38 -12 13 -22 28 -22 34 0 6 -15 20 -34 31 l-34 20 -9 -20 c-9 -20 -9 -20
-26 5 -9 14 -28 37 -42 53 -22 23 -25 24 -25 8z"/>
<path d="M28290 31750 c0 -5 7 -10 15 -10 8 0 15 5 15 10 0 6 -7 10 -15 10 -8
0 -15 -4 -15 -10z"/>
<path d="M34685 31740 c10 -11 23 -20 28 -20 6 0 2 9 -8 20 -10 11 -23 20 -28
20 -6 0 -2 -9 8 -20z"/>
<path d="M34740 31686 c0 -14 5 -26 10 -26 6 0 10 9 10 19 0 11 -4 23 -10 26
-6 4 -10 -5 -10 -19z"/>
<path d="M34780 31676 c0 -9 7 -16 16 -16 9 0 14 5 12 12 -6 18 -28 21 -28 4z"/>
<path d="M28440 31673 c0 -13 47 -31 59 -23 7 4 2 11 -14 18 -30 14 -45 15
-45 5z"/>
<path d="M10300 31635 c0 -8 5 -15 10 -15 6 0 10 7 10 15 0 8 -4 15 -10 15 -5
0 -10 -7 -10 -15z"/>
<path d="M34880 31600 c30 -25 60 -38 60 -26 0 6 -76 56 -85 56 -5 0 6 -13 25
-30z"/>
<path d="M28665 31520 c4 -6 11 -8 16 -5 14 9 11 15 -7 15 -8 0 -12 -5 -9 -10z"/>
<path d="M21242 31479 c-29 -23 -56 -48 -59 -57 -11 -32 -46 -62 -64 -57 -13
4 -22 -3 -34 -25 -8 -16 -34 -42 -56 -55 -39 -25 -57 -50 -46 -61 7 -7 67 27
67 37 0 4 17 18 38 30 82 50 248 201 238 217 -12 19 -28 13 -84 -29z"/>
<path d="M34999 31484 c-12 -14 -11 -16 5 -13 11 2 21 10 24 17 5 17 -13 15
-29 -4z"/>
<path d="M8557 31403 c-3 -5 -5 -66 -6 -138 -1 -71 -8 -170 -16 -220 -20 -127
-35 -252 -45 -380 -5 -60 -14 -159 -20 -220 -5 -60 -15 -204 -21 -320 -12
-242 -18 -265 -82 -290 -40 -16 -41 -17 -22 -32 23 -16 77 -12 103 9 8 7 23
32 34 54 19 43 21 68 68 769 13 189 31 365 46 451 30 174 32 284 6 307 -20 18
-38 22 -45 10z"/>
<path d="M28855 31350 c-3 -5 1 -10 9 -10 9 0 16 -8 16 -17 0 -13 3 -14 12 -5
8 8 8 15 -2 27 -14 17 -26 19 -35 5z"/>
<path d="M35168 31348 c7 -7 12 -23 12 -36 0 -17 4 -23 15 -18 9 3 19 -3 25
-14 6 -11 20 -20 32 -20 18 0 15 6 -23 49 -24 27 -51 49 -58 50 -12 1 -12 -2
-3 -11z"/>
<path d="M32456 31284 c-3 -9 -6 -41 -6 -72 0 -72 -17 -106 -53 -110 -34 -4
-49 -31 -54 -101 -3 -54 -15 -74 -38 -65 -22 9 -108 -60 -132 -106 -13 -24
-30 -48 -37 -52 -8 -4 -189 -9 -402 -11 -451 -3 -464 -5 -476 -72 -4 -22 -8
-308 -9 -635 -1 -387 -8 -724 -19 -965 -13 -280 -15 -421 -9 -580 5 -115 13
-397 19 -626 6 -229 14 -437 18 -461 10 -50 48 -100 54 -70 2 9 0 44 -4 77
-22 188 -38 662 -38 1170 0 736 18 1981 31 2027 6 23 21 46 42 60 32 23 34 23
297 20 258 -2 421 7 488 29 51 17 145 83 186 131 42 49 149 199 184 259 25 41
37 107 27 147 -4 16 -13 22 -34 22 -17 0 -31 -6 -35 -16z"/>
<path d="M29010 31220 c0 -6 8 -13 18 -17 9 -3 27 -15 40 -26 31 -28 28 -17
-6 21 -29 32 -52 42 -52 22z"/>
<path d="M35295 31190 c-10 -11 -16 -21 -14 -23 2 -1 13 -8 24 -15 44 -27 85
-45 91 -39 8 7 -43 75 -66 87 -13 7 -22 4 -35 -10z"/>
<path d="M20825 31138 c-14 -15 -45 -37 -68 -50 -28 -16 -43 -31 -45 -47 l-4
-24 34 19 c18 11 37 29 42 41 6 12 27 27 48 34 21 6 44 22 51 33 13 19 12 21
-9 21 -13 0 -35 -12 -49 -27z"/>
<path d="M25442 31138 c-14 -14 -16 -58 -3 -58 8 0 25 60 18 66 -2 2 -9 -2
-15 -8z"/>
<path d="M29758 31088 c-15 -33 -12 -62 14 -115 6 -11 7 -26 3 -32 -4 -7 8
-18 31 -27 30 -13 63 -15 173 -10 142 6 266 -7 314 -31 28 -14 28 -14 25 14
-3 28 -4 28 -93 34 -49 4 -136 7 -192 8 -98 1 -102 2 -124 29 -20 25 -21 25
-16 5 8 -34 -27 -30 -40 5 -11 28 -13 26 -29 -27 -4 -11 -7 -11 -20 0 -11 9
-14 22 -10 42 4 17 0 37 -10 53 -11 16 -14 35 -10 54 7 39 3 38 -16 -2z"/>
<path d="M29155 31080 c9 -42 13 -50 26 -50 16 0 10 31 -12 58 l-21 27 7 -35z"/>
<path d="M25480 31075 c0 -8 5 -15 10 -15 6 0 10 7 10 15 0 8 -4 15 -10 15 -5
0 -10 -7 -10 -15z"/>
<path d="M25537 31084 c-11 -11 -8 -52 3 -59 6 -3 13 0 15 8 7 17 -8 60 -18
51z"/>
<path d="M35474 31008 c7 -38 5 -35 39 -43 36 -10 36 13 -1 48 -37 35 -46 34
-38 -5z"/>
<path d="M15480 31019 c0 -5 5 -7 10 -4 6 3 10 8 10 11 0 2 -4 4 -10 4 -5 0
-10 -5 -10 -11z"/>
<path d="M29941 30999 c-1 -15 7 -33 16 -40 13 -11 15 -11 9 -1 -5 8 -12 26
-16 40 l-8 27 -1 -26z"/>
<path d="M15390 30976 c0 -14 4 -27 9 -31 12 -7 25 31 16 45 -11 18 -25 10
-25 -14z"/>
<path d="M20633 30980 c-24 -10 -29 -26 -15 -48 9 -13 14 -8 51 41 16 20 3 22
-36 7z"/>
<path d="M30010 30966 c0 -8 5 -18 10 -21 6 -3 10 1 10 9 0 8 -4 18 -10 21 -5
3 -10 -1 -10 -9z"/>
<path d="M17232 30945 c0 -16 2 -22 5 -12 2 9 2 23 0 30 -3 6 -5 -1 -5 -18z"/>
<path d="M34180 30951 c0 -6 -9 -11 -20 -11 -23 0 -27 -18 -5 -26 8 -4 15 -11
15 -16 0 -6 -7 -7 -15 -4 -9 3 -18 -1 -21 -9 -4 -8 -17 -15 -30 -15 -21 0 -23
-3 -17 -31 5 -29 4 -31 -16 -24 -20 6 -22 4 -21 -22 3 -43 1 -47 -16 -32 -16
13 -23 8 -38 -26 -3 -6 -9 -3 -15 5 -9 13 -12 12 -17 -7 -4 -13 -12 -23 -19
-23 -8 0 -18 -20 -24 -48 -5 -26 -17 -61 -25 -77 -9 -17 -16 -45 -16 -64 0
-24 -4 -32 -13 -28 -9 3 -19 -8 -28 -29 -18 -47 -39 -65 -39 -34 0 46 -16 12
-69 -150 -16 -47 -34 -110 -41 -140 -17 -76 -28 -94 -45 -80 -22 19 -32 -15
-49 -161 -16 -140 -64 -330 -92 -360 -28 -31 -36 -152 -31 -439 4 -217 9 -287
22 -330 9 -30 21 -59 27 -65 11 -10 11 -9 -13 215 -12 108 -6 395 10 480 4 25
22 97 39 161 17 64 38 154 46 200 21 109 74 277 97 307 10 13 23 40 29 60 25
82 67 172 121 262 31 52 68 119 83 149 15 29 53 87 84 128 31 42 63 85 71 97
8 11 37 47 63 78 49 57 66 106 41 115 -7 3 -13 0 -13 -6z"/>
<path d="M34237 30946 c-6 -15 1 -26 15 -26 11 0 10 27 -1 34 -5 3 -11 0 -14
-8z"/>
<path d="M29284 30924 c4 -10 11 -44 16 -78 15 -100 29 -179 38 -211 8 -27 10
-23 21 42 11 64 11 79 -4 125 -10 29 -29 72 -42 96 -25 42 -41 56 -29 26z"/>
<path d="M15350 30915 c-7 -8 -18 -15 -25 -15 -13 0 -25 -30 -25 -62 0 -33 19
-18 46 33 25 51 28 73 4 44z"/>
<path d="M17146 30914 c-15 -37 -28 -435 -33 -979 -4 -523 2 -726 32 -1065 2
-25 8 -209 14 -410 6 -201 22 -534 36 -740 34 -520 35 -555 25 -757 -11 -208
-31 -322 -72 -416 -28 -65 -44 -123 -84 -302 -14 -59 -26 -88 -49 -115 -19
-20 -37 -56 -44 -85 -19 -80 -56 -151 -105 -203 -28 -30 -48 -62 -52 -83 -4
-19 -12 -41 -19 -49 -7 -8 -20 -30 -30 -49 -9 -19 -30 -45 -46 -58 -15 -13
-31 -34 -35 -46 -3 -12 -25 -40 -48 -63 -22 -22 -50 -55 -61 -74 -13 -22 -31
-37 -52 -42 -23 -6 -33 -14 -33 -28 0 -12 -15 -29 -37 -44 -21 -13 -47 -33
-58 -46 -11 -12 -58 -40 -103 -63 -58 -28 -87 -48 -93 -64 -5 -13 -23 -29 -39
-35 -17 -5 -35 -19 -41 -29 -5 -11 -13 -17 -18 -15 -11 7 -77 -17 -98 -36 -18
-15 -78 -49 -88 -48 -36 1 -52 -6 -88 -38 -61 -55 -73 -59 -330 -123 -109 -27
-133 -30 -315 -31 -178 -1 -204 1 -266 21 -48 16 -80 21 -105 16 -56 -10 -145
-6 -198 10 -60 18 -68 19 -54 1 7 -8 28 -17 47 -21 19 -3 124 -34 232 -68
l197 -61 190 0 c180 0 195 1 285 28 52 16 100 31 105 34 10 6 42 19 150 57 28
9 55 21 60 25 6 4 48 28 95 52 184 98 249 134 340 194 245 159 429 341 583
576 142 219 234 403 307 615 65 188 81 244 96 339 28 180 37 907 15 1214 -5
58 -9 174 -10 259 -1 85 -3 157 -5 160 -2 3 -7 96 -11 206 -3 110 -13 274 -21
365 -12 146 -18 207 -39 415 -23 231 -27 347 -27 780 0 502 1 525 43 763 13
70 12 74 -12 124 -21 43 -27 48 -33 32z"/>
<path d="M27582 30910 c0 -14 2 -19 5 -12 2 6 2 18 0 25 -3 6 -5 1 -5 -13z"/>
<path d="M35600 30901 c0 -6 5 -13 10 -16 6 -4 10 -15 8 -25 -4 -24 13 -28 26
-7 7 12 5 21 -8 36 -20 22 -36 27 -36 12z"/>
<path d="M34430 30885 c0 -8 7 -15 15 -15 9 0 12 6 9 15 -4 8 -10 15 -15 15
-5 0 -9 -7 -9 -15z"/>
<path d="M20530 30855 c0 -42 4 -43 26 -9 15 22 15 27 3 35 -24 15 -29 10 -29
-26z"/>
<path d="M11360 30846 c-25 -13 -62 -26 -84 -30 -25 -5 -49 -19 -70 -42 -20
-21 -62 -47 -116 -69 -71 -31 -93 -46 -140 -98 -30 -33 -74 -82 -97 -107 -23
-25 -46 -57 -51 -71 -17 -42 -31 -373 -37 -834 -5 -443 -7 -496 -27 -925 -14
-320 -18 -656 -8 -765 4 -49 11 -225 14 -390 8 -344 11 -382 37 -395 38 -21
53 -173 23 -231 -18 -35 -101 -78 -167 -86 -56 -8 -83 -21 -68 -36 19 -19 13
-39 -9 -32 -13 4 -22 1 -26 -9 -3 -9 -12 -16 -19 -16 -8 0 -50 -12 -95 -26
-76 -25 -81 -28 -76 -50 5 -19 2 -24 -13 -24 -11 0 -22 -4 -26 -9 -3 -5 -22
-15 -43 -22 -20 -7 -42 -18 -47 -26 -6 -7 -34 -20 -63 -27 -29 -8 -74 -28
-100 -44 -136 -84 -140 -86 -239 -85 -90 0 -93 0 -93 -22 0 -27 41 -45 99 -45
44 0 161 32 210 58 20 11 52 27 71 36 19 10 42 21 50 26 8 5 68 41 132 80 65
39 135 78 155 86 21 9 57 25 80 35 23 10 47 19 52 19 6 0 16 9 23 20 7 11 24
20 38 20 36 0 180 73 213 108 23 24 30 44 38 101 9 75 9 78 -41 281 -42 174
-48 221 -57 420 -15 340 0 1233 28 1675 5 77 11 352 15 610 6 468 6 470 30
523 40 90 156 199 285 269 19 10 48 28 66 41 17 12 34 22 37 22 3 0 28 14 55
30 27 17 71 38 98 47 61 20 76 33 38 33 -17 -1 -50 -11 -75 -24z"/>
<path d="M27450 30860 c0 -5 5 -10 11 -10 5 0 7 5 4 10 -3 6 -8 10 -11 10 -2
0 -4 -4 -4 -10z"/>
<path d="M27378 30832 c-26 -15 -37 -32 -22 -32 12 0 64 34 64 42 0 12 -12 9
-42 -10z"/>
<path d="M15267 30828 c-4 -10 -9 -25 -12 -33 -2 -8 -11 -12 -18 -9 -24 9 -57
-44 -57 -89 l0 -41 30 34 c42 49 72 107 67 133 -3 19 -4 20 -10 5z"/>
<path d="M27935 30820 c3 -5 11 -10 16 -10 6 0 7 5 4 10 -3 6 -11 10 -16 10
-6 0 -7 -4 -4 -10z"/>
<path d="M35655 30819 c-4 -6 -5 -11 -4 -12 2 -1 22 -11 43 -22 22 -11 47 -32
55 -47 14 -25 31 -37 31 -22 0 9 -102 114 -111 114 -4 0 -11 -5 -14 -11z"/>
<path d="M20434 30745 c-9 -37 4 -44 26 -15 25 32 25 40 0 40 -13 0 -22 -9
-26 -25z"/>
<path d="M27265 30731 c-3 -6 -17 -8 -31 -5 -19 5 -24 2 -24 -14 0 -11 -3 -27
-6 -36 -8 -21 11 -21 28 0 7 8 21 24 31 36 10 11 16 22 14 24 -3 3 -8 1 -12
-5z"/>
<path d="M20362 30674 c-22 -15 -31 -64 -12 -64 10 0 50 58 50 73 0 11 -14 8
-38 -9z"/>
<path d="M15075 30587 c-19 -41 -35 -81 -35 -89 0 -9 -7 -18 -15 -22 -17 -6
-21 -71 -5 -81 13 -8 43 53 35 73 -3 9 -3 13 1 9 5 -4 22 16 38 46 17 29 42
68 55 86 19 27 21 35 10 42 -34 21 -49 9 -84 -64z"/>
<path d="M35817 30635 c-4 -8 -2 -17 4 -20 5 -4 7 -11 3 -16 -5 -9 39 -59 52
-59 12 0 1 48 -18 77 -25 37 -33 40 -41 18z"/>
<path d="M27143 30633 c-12 -4 -19 -63 -8 -63 8 0 54 53 55 63 0 8 -28 8 -47
0z"/>
<path d="M29426 30525 c13 -278 21 -532 18 -550 -7 -44 -23 -432 -20 -460 20
-141 10 -696 -13 -805 -32 -148 -52 -220 -62 -220 -5 0 -9 12 -9 26 0 14 -4
23 -9 20 -12 -8 -22 -184 -31 -564 -8 -335 -11 -362 -53 -425 -22 -34 -32 -88
-46 -252 -33 -374 -41 -417 -83 -431 -26 -8 -43 -52 -57 -151 -16 -107 -49
-205 -100 -289 -23 -38 -46 -87 -52 -109 -33 -130 -66 -221 -94 -259 -46 -60
-50 -68 -89 -221 -25 -96 -45 -149 -62 -170 -44 -54 -104 -148 -111 -175 -8
-31 -52 -97 -88 -130 -15 -14 -38 -47 -50 -75 -13 -27 -37 -63 -55 -80 -17
-16 -40 -47 -51 -67 -11 -21 -32 -44 -48 -52 -34 -18 -80 -74 -113 -137 -31
-58 -71 -74 -99 -40 -11 14 -18 30 -15 38 8 19 -8 16 -26 -4 -38 -43 -78 -131
-78 -171 0 -102 102 -92 206 21 191 207 476 610 584 827 42 83 156 351 201
470 22 58 62 161 89 230 27 69 67 189 89 266 22 78 52 168 66 200 28 62 72
242 105 429 47 260 60 349 70 500 6 88 17 205 25 260 8 55 17 129 20 165 4 36
15 115 26 175 26 153 47 397 59 685 10 252 26 527 40 685 9 98 13 361 5 354
-2 -3 -7 -70 -11 -149 -3 -80 -9 -148 -13 -152 -3 -4 -6 102 -7 235 -1 314
-16 524 -42 602 l-21 60 5 -110z"/>
<path d="M20300 30581 c-6 -12 -17 -17 -28 -14 -15 4 -21 -4 -28 -39 -9 -40
-12 -43 -52 -52 -34 -7 -43 -13 -39 -26 2 -10 -6 -39 -19 -64 -25 -50 -30 -76
-15 -76 10 0 24 18 81 101 19 29 49 68 66 88 37 43 69 101 55 101 -6 0 -15 -9
-21 -19z"/>
<path d="M27090 30524 c0 -14 4 -23 10 -19 6 3 10 15 10 26 0 10 -4 19 -10 19
-5 0 -10 -12 -10 -26z"/>
<path d="M35937 30477 c-3 -9 -4 -33 -1 -54 9 -65 12 -68 34 -43 26 30 25 48
-3 84 -19 24 -25 26 -30 13z"/>
<path d="M13442 30228 c0 -123 -8 -329 -16 -458 -9 -129 -16 -270 -16 -312 0
-42 -9 -137 -19 -210 -22 -154 -36 -299 -51 -558 -15 -241 -32 -356 -74 -515
-21 -78 -39 -178 -45 -250 -19 -194 -40 -328 -60 -365 -10 -19 -25 -49 -34
-65 -9 -17 -30 -111 -48 -210 -33 -189 -38 -207 -93 -295 -19 -30 -37 -73 -41
-95 -3 -22 -17 -51 -30 -65 -19 -20 -27 -44 -35 -103 -6 -43 -10 -85 -9 -95 3
-33 -3 -47 -11 -22 l-7 25 -12 -30 c-10 -23 -14 -26 -22 -15 -13 21 -25 0 -33
-57 -3 -25 -12 -59 -20 -76 -7 -18 -17 -50 -22 -71 -8 -33 -15 -41 -43 -51
-39 -13 -53 -43 -72 -152 -9 -48 -19 -72 -40 -94 -16 -16 -29 -38 -29 -48 0
-10 -11 -39 -24 -64 -14 -25 -28 -62 -32 -82 -3 -19 -12 -39 -19 -43 -6 -4
-17 -17 -24 -29 -6 -13 -17 -23 -24 -23 -16 0 -43 -50 -62 -115 -11 -38 -23
-56 -51 -74 -31 -22 -48 -45 -89 -122 -11 -21 -21 -24 -30 -9 -11 18 -23 11
-30 -17 -12 -49 -42 -77 -86 -79 -47 -3 -49 9 -9 46 34 32 37 45 13 54 -21 9
-20 10 -99 -119 -103 -167 -107 -177 -92 -210 10 -22 17 -26 40 -21 117 23
366 309 573 657 30 52 55 98 55 103 0 5 7 17 15 26 8 9 26 47 39 84 14 38 32
76 40 85 9 9 22 35 29 56 8 22 38 90 67 150 30 61 69 144 88 185 19 41 47 102
63 135 40 87 129 301 129 313 0 5 13 43 29 83 16 41 46 128 66 194 20 66 50
161 66 211 16 49 36 133 44 185 8 51 28 153 45 224 52 231 76 371 90 530 32
352 53 543 75 655 54 287 58 347 58 790 0 385 -2 421 -21 500 -44 182 -49 175
-50 -72z"/>
<path d="M27001 30403 l0 -48 16 32 c16 31 13 63 -7 63 -5 0 -10 -21 -9 -47z"/>
<path d="M14980 30363 c-7 -16 -15 -23 -17 -15 -7 19 -23 4 -23 -22 0 -13 -6
-41 -13 -62 -8 -22 -16 -70 -19 -109 l-6 -70 14 45 c7 25 18 53 24 63 29 49
76 197 62 197 -5 0 -15 -12 -22 -27z"/>
<path d="M7030 30358 c-3 -3 -50 -8 -105 -12 -55 -3 -136 -15 -180 -27 -44
-11 -138 -29 -209 -40 -70 -11 -143 -26 -161 -35 -32 -15 -55 -49 -55 -81 0
-14 3 -13 23 4 50 47 160 83 250 83 23 0 105 10 182 21 121 19 186 22 478 23
360 1 378 5 204 42 -68 15 -416 32 -427 22z"/>
<path d="M28341 30325 c0 -11 4 -29 9 -40 8 -18 9 -18 9 5 0 14 -4 32 -9 40
-8 12 -10 12 -9 -5z"/>
<path d="M36040 30310 c0 -14 7 -45 16 -70 9 -25 18 -55 20 -67 2 -12 8 -31
12 -43 8 -22 8 -22 26 5 17 26 17 29 0 69 -10 22 -31 61 -46 86 -24 39 -28 42
-28 20z"/>
<path d="M7666 30292 c-3 -5 1 -9 9 -9 8 0 12 4 9 9 -3 4 -7 8 -9 8 -2 0 -6
-4 -9 -8z"/>
<path d="M20053 30258 c-13 -6 -23 -16 -24 -22 0 -6 -2 -19 -4 -28 -6 -32 20
-18 42 22 23 42 21 45 -14 28z"/>
<path d="M19987 30174 c-10 -10 -9 -44 2 -44 13 0 23 32 13 42 -5 5 -11 5 -15
2z"/>
<path d="M19911 30116 c-21 -23 -36 -86 -20 -86 4 0 21 16 38 35 51 58 33 106
-18 51z"/>
<path d="M14826 30029 c-26 -50 -30 -73 -35 -168 -6 -105 1 -144 15 -83 3 15
15 59 25 97 35 125 39 140 39 172 0 50 -13 45 -44 -18z"/>
<path d="M36174 30004 c9 -91 27 -183 37 -190 12 -7 29 40 29 82 0 36 -45 160
-62 170 -6 4 -8 -18 -4 -62z"/>
<path d="M19824 30012 c-24 -31 -39 -72 -27 -72 20 0 74 67 67 83 -8 23 -15
21 -40 -11z"/>
<path d="M6231 29987 c-22 -28 -41 -108 -40 -176 l0 -66 20 70 c42 153 48 205
20 172z"/>
<path d="M19728 29924 c-19 -10 -28 -23 -28 -39 0 -31 5 -31 47 1 54 41 40 71
-19 38z"/>
<path d="M36274 29763 c12 -121 29 -238 37 -246 14 -17 32 66 26 120 -6 61
-48 193 -61 193 -5 0 -6 -30 -2 -67z"/>
<path d="M19630 29812 c0 -6 -12 -25 -26 -42 -29 -34 -29 -34 2 -44 20 -6 22
-2 26 41 3 26 3 50 1 52 -2 2 -3 -1 -3 -7z"/>
<path d="M14768 29683 c-22 -79 -58 -228 -68 -283 -18 -94 -9 -365 16 -480 13
-60 22 19 27 255 4 138 11 273 16 300 5 28 12 86 16 130 3 44 8 92 11 108 9
47 -2 29 -18 -30z"/>
<path d="M19602 29678 c2 -6 10 -14 16 -16 7 -2 10 2 6 12 -7 18 -28 22 -22 4z"/>
<path d="M22533 29608 c-57 -76 -61 -88 -17 -46 42 41 81 98 66 98 -5 0 -27
-24 -49 -52z"/>
<path d="M19874 29511 c20 -22 26 -25 26 -13 0 4 -10 13 -22 21 -23 14 -23 14
-4 -8z"/>
<path d="M22423 29496 c-23 -13 -56 -38 -75 -55 -18 -17 -42 -31 -53 -32 -17
0 -17 -1 4 -10 37 -15 84 6 135 61 64 68 61 75 -11 36z"/>
<path d="M36377 29493 c5 -16 8 -128 8 -250 0 -217 0 -222 -22 -243 -13 -11
-23 -29 -23 -40 0 -10 -4 -22 -10 -25 -5 -3 -10 1 -10 9 0 9 -4 16 -10 16 -5
0 -10 -9 -10 -21 0 -11 -5 -30 -12 -42 -6 -12 -13 -53 -14 -92 -4 -99 -23
-187 -46 -205 -22 -18 -48 -107 -48 -167 0 -53 -8 -73 -26 -66 -16 6 -20 -42
-4 -52 16 -10 12 -28 -5 -22 -19 8 -31 -11 -16 -26 6 -6 11 -18 11 -26 0 -11
-4 -10 -20 4 -11 10 -23 15 -27 11 -12 -12 -29 -89 -28 -133 0 -23 -4 -41 -8
-40 -5 1 -12 -4 -14 -10 -3 -7 0 -13 6 -13 6 0 11 -7 11 -15 0 -8 -4 -15 -9
-15 -5 0 -14 7 -21 15 -20 24 -28 18 -36 -30 -3 -25 -10 -45 -14 -45 -9 0 -1
-40 11 -56 10 -13 2 -24 -14 -19 -7 2 -25 6 -40 9 -31 7 -30 11 -10 -99 l5
-30 -26 25 c-33 30 -41 21 -50 -57 -5 -44 -12 -59 -36 -80 -17 -13 -30 -31
-30 -38 0 -8 -8 -16 -18 -19 -10 -4 -29 -28 -42 -54 -13 -26 -33 -60 -45 -77
-13 -16 -21 -35 -18 -41 2 -6 -10 -14 -26 -17 -22 -5 -36 -17 -50 -44 -10 -21
-33 -48 -51 -61 -17 -13 -35 -34 -40 -47 -5 -13 -27 -36 -50 -50 -22 -14 -40
-32 -40 -40 0 -8 -16 -27 -36 -42 -19 -15 -51 -50 -70 -76 -19 -26 -45 -53
-59 -59 -14 -6 -27 -19 -30 -28 -3 -9 -22 -26 -43 -37 -20 -12 -48 -33 -61
-47 -14 -14 -30 -26 -36 -26 -7 0 -39 -13 -71 -30 -32 -16 -71 -32 -86 -36
-26 -5 -41 -34 -18 -34 25 0 6 -21 -35 -39 -25 -11 -45 -25 -45 -30 0 -6 -7
-11 -15 -11 -8 0 -43 -15 -77 -34 -35 -18 -80 -39 -100 -45 -21 -7 -46 -23
-57 -37 -27 -35 -130 -60 -361 -89 -214 -26 -299 -28 -365 -10 -33 9 -73 20
-90 25 -16 4 -52 15 -79 24 -27 8 -53 13 -58 10 -4 -3 -17 11 -29 31 -13 21
-44 49 -80 70 -32 18 -81 52 -110 75 -28 22 -54 38 -57 35 -11 -11 171 -184
222 -211 28 -15 57 -36 65 -47 25 -35 48 -50 133 -84 150 -60 280 -76 440 -53
77 11 330 101 401 142 26 15 66 37 90 48 60 29 123 66 192 113 148 100 215
150 215 159 0 4 5 8 11 8 52 0 579 523 579 574 0 8 6 16 14 19 31 12 296 430
296 468 0 10 5 21 11 25 29 18 173 358 236 559 19 61 41 126 48 145 32 83 124
420 130 474 10 86 8 226 -5 298 -15 91 -31 148 -41 148 -5 0 -6 -12 -2 -27z
m-97 -903 c0 -5 -5 -10 -11 -10 -5 0 -7 5 -4 10 3 6 8 10 11 10 2 0 4 -4 4
-10z"/>
<path d="M6147 29370 c-13 -120 -17 -513 -7 -660 4 -74 11 -254 14 -400 7
-301 11 -368 32 -495 16 -96 31 -145 46 -145 17 0 18 27 3 100 -33 154 -60
793 -60 1397 0 116 -3 209 -7 207 -4 -3 -8 13 -10 33 -2 28 -5 18 -11 -37z"/>
<path d="M18852 29214 c-18 -8 -37 -26 -43 -42 -24 -58 6 -728 51 -1177 32
-324 44 -514 45 -705 l0 -215 -30 -60 c-37 -74 -64 -90 -177 -108 l-87 -14
-93 -85 c-51 -46 -123 -108 -160 -137 -38 -29 -68 -57 -68 -63 0 -5 -27 -37
-60 -71 -33 -34 -83 -88 -112 -119 -59 -63 -96 -79 -122 -53 -13 14 -16 39
-16 151 0 205 -28 170 -50 -62 -12 -130 -7 -159 32 -201 25 -27 66 -30 108 -8
15 8 75 70 133 137 156 183 334 348 442 410 33 19 98 48 145 64 105 36 152 79
171 156 21 88 -2 1004 -31 1208 -5 36 -12 121 -15 190 -7 141 -30 430 -45 565
-14 131 -13 143 16 172 20 20 32 24 59 20 20 -3 40 0 51 8 16 11 14 14 -24 34
-47 24 -74 25 -120 5z"/>
<path d="M19097 29113 c-14 -4 -16 -8 -6 -19 9 -11 15 -12 25 -3 15 12 19 30
7 28 -5 -1 -16 -3 -26 -6z"/>
<path d="M19155 29050 c-3 -5 -1 -10 4 -10 6 0 11 5 11 10 0 6 -2 10 -4 10 -3
0 -8 -4 -11 -10z"/>
<path d="M19252 28958 c2 -6 10 -14 16 -16 7 -2 10 2 6 12 -7 18 -28 22 -22 4z"/>
<path d="M19340 28885 c0 -14 5 -25 10 -25 6 0 10 11 10 25 0 14 -4 25 -10 25
-5 0 -10 -11 -10 -25z"/>
<path d="M19392 28858 c-14 -14 -16 -28 -3 -28 9 0 24 30 18 36 -2 2 -9 -2
-15 -8z"/>
<path d="M23396 28815 c-6 -16 -2 -18 32 -9 12 4 22 10 22 15 0 15 -48 10 -54
-6z"/>
<path d="M19441 28802 c-13 -25 -14 -42 -2 -42 10 0 25 50 17 57 -2 3 -9 -4
-15 -15z"/>
<path d="M23270 28750 c-14 -10 -22 -22 -18 -25 9 -9 63 17 61 30 -3 17 -17
15 -43 -5z"/>
<path d="M19476 28731 c-4 -6 -3 -18 2 -27 8 -15 10 -14 16 2 8 20 -8 42 -18
25z"/>
<path d="M23156 28684 c-21 -20 -20 -24 3 -24 10 0 29 9 42 20 l24 19 -27 1
c-15 0 -34 -7 -42 -16z"/>
<path d="M19520 28680 c0 -5 5 -10 10 -10 6 0 10 5 10 10 0 6 -4 10 -10 10 -5
0 -10 -4 -10 -10z"/>
<path d="M19570 28616 c0 -14 4 -27 9 -30 12 -8 22 20 15 39 -9 23 -24 18 -24
-9z"/>
<path d="M22974 28586 c-10 -16 -26 -26 -39 -26 -29 0 -55 -25 -55 -50 0 -17
3 -18 28 -8 15 6 34 18 42 27 8 9 32 25 54 36 44 23 48 39 12 43 -18 2 -30 -4
-42 -22z"/>
<path d="M24880 28389 c1 -101 5 -231 10 -289 6 -58 13 -145 16 -195 3 -49 16
-144 29 -210 13 -66 27 -141 30 -168 6 -35 10 -45 19 -38 13 11 1 128 -24 236
-15 66 -27 169 -35 290 -4 55 -11 145 -16 200 -5 55 -12 156 -16 225 -3 69 -7
127 -9 129 -2 2 -4 -79 -4 -180z"/>
<path d="M19660 28497 c0 -16 37 -57 50 -57 16 0 12 15 -11 44 -22 28 -39 34
-39 13z"/>
<path d="M14791 28425 c1 -44 4 -91 9 -105 14 -46 23 5 16 88 -10 106 -26 117
-25 17z"/>
<path d="M20756 28442 c-8 -23 6 -63 28 -81 14 -12 14 -8 0 40 -19 64 -20 66
-28 41z"/>
<path d="M22808 28453 c-9 -3 -20 -13 -23 -23 -3 -11 -24 -39 -46 -62 -26 -28
-39 -51 -39 -70 0 -15 4 -28 9 -28 13 0 51 50 51 67 0 8 11 25 25 39 55 55 64
86 23 77z"/>
<path d="M19757 28393 c-11 -10 -8 -53 3 -53 6 0 10 14 10 30 0 31 -2 35 -13
23z"/>
<path d="M9196 28305 c-4 -20 -6 -276 -4 -569 6 -960 4 -1023 -19 -1054 -34
-45 -81 -55 -207 -42 -60 6 -139 18 -175 26 -134 30 -201 36 -411 36 -179 0
-234 -4 -330 -22 -63 -12 -145 -25 -181 -29 -37 -5 -73 -12 -80 -16 -14 -9
-136 -11 -1529 -19 -550 -4 -1032 -11 -1105 -17 -92 -8 -182 -24 -310 -56 -99
-25 -231 -53 -293 -63 -104 -17 -162 -38 -162 -59 0 -13 -108 -54 -125 -48 -8
4 -17 2 -20 -3 -4 -6 -14 -10 -23 -10 -10 0 -22 -10 -27 -21 -6 -12 -27 -28
-48 -37 -37 -14 -39 -14 -66 12 -15 14 -32 26 -37 26 -6 0 -31 -20 -57 -45
-40 -38 -47 -50 -47 -84 0 -85 61 -80 263 19 79 38 146 70 149 70 4 0 39 19
79 41 85 48 184 84 260 94 30 3 101 15 159 25 218 40 513 57 1175 71 270 5
546 14 615 19 211 17 707 40 852 40 75 0 139 4 142 8 7 12 505 28 741 24 194
-3 362 -14 495 -32 41 -6 117 -11 168 -11 115 0 144 14 188 94 12 23 15 87 13
425 -2 668 -13 1205 -25 1226 -10 16 -12 14 -18 -19z"/>
<path d="M33595 28244 c11 -146 23 -216 39 -232 28 -29 31 16 7 127 -13 58
-25 123 -28 144 -3 20 -10 40 -15 43 -7 4 -8 -24 -3 -82z"/>
<path d="M19841 28240 c0 -8 4 -22 9 -30 12 -18 12 -2 0 25 -6 13 -9 15 -9 5z"/>
<path d="M20876 28192 c-7 -11 5 -82 13 -82 3 0 7 20 9 45 2 41 -9 58 -22 37z"/>
<path d="M19894 28162 c1 -16 7 -29 14 -29 13 0 16 16 6 41 -10 26 -21 18 -20
-12z"/>
<path d="M19920 28111 c0 -6 4 -13 10 -16 6 -3 7 1 4 9 -7 18 -14 21 -14 7z"/>
<path d="M20930 28083 c0 -4 12 -26 25 -48 14 -22 25 -50 25 -62 0 -13 5 -23
11 -23 24 0 -21 129 -48 138 -7 2 -13 0 -13 -5z"/>
<path d="M19981 28033 c-1 -24 4 -43 9 -43 12 0 12 37 0 65 -7 15 -9 10 -9
-22z"/>
<path d="M26741 27854 c-1 -58 13 -162 24 -172 11 -12 12 6 3 58 -5 30 -13 82
-17 115 l-8 60 -2 -61z"/>
<path d="M20073 27885 c-18 -20 -16 -29 9 -51 13 -12 18 -13 13 -4 -5 8 -8 27
-6 42 3 32 1 33 -16 13z"/>
<path d="M33706 27829 c10 -109 42 -173 61 -123 7 19 -43 180 -58 190 -7 4 -8
-18 -3 -67z"/>
<path d="M16230 27856 c0 -20 5 -26 21 -26 15 0 20 5 17 22 -5 34 -38 37 -38
4z"/>
<path d="M21064 27807 c-3 -8 8 -41 24 -75 25 -51 32 -59 42 -48 9 12 6 27
-16 75 -27 61 -40 73 -50 48z"/>
<path d="M15070 27771 c0 -5 5 -13 10 -16 6 -3 10 -2 10 4 0 5 -4 13 -10 16
-5 3 -10 2 -10 -4z"/>
<path d="M20130 27725 c14 -36 40 -85 45 -85 3 0 5 12 5 26 0 14 -4 23 -10 19
-6 -4 -17 10 -25 29 -17 41 -30 50 -15 11z"/>
<path d="M33800 27650 c0 -28 12 -60 22 -60 6 0 7 11 3 28 -7 31 -25 54 -25
32z"/>
<path d="M20190 27623 c0 -16 75 -151 101 -181 16 -18 29 -37 29 -43 0 -11 80
-129 87 -129 7 0 -61 126 -84 153 -13 16 -23 34 -23 40 0 7 -13 28 -29 47 -15
19 -38 54 -50 78 -20 39 -31 52 -31 35z"/>
<path d="M21170 27620 c0 -9 4 -20 9 -25 5 -6 12 -31 14 -57 7 -58 10 -64 42
-70 32 -7 32 9 0 70 -32 62 -64 102 -65 82z"/>
<path d="M32380 27593 c1 -10 7 -29 15 -43 29 -51 5 -183 -36 -193 -13 -4 -19
-14 -19 -33 0 -45 -49 -136 -100 -185 -28 -28 -51 -59 -55 -78 -12 -55 -322
-352 -423 -405 -15 -8 -46 -33 -70 -56 -43 -41 -131 -90 -165 -90 -18 0 -59
-12 -184 -51 -199 -63 -430 -55 -476 18 -5 8 -29 13 -60 13 -50 0 -53 2 -107
58 -30 32 -81 78 -114 102 -32 24 -70 62 -84 82 -26 40 -40 51 -22 18 52 -98
241 -295 325 -340 28 -14 62 -34 76 -43 74 -49 237 -68 366 -44 81 16 242 80
388 156 271 140 651 524 804 813 68 128 48 318 -34 318 -17 0 -25 -5 -25 -17z"/>
<path d="M33847 27543 c-8 -14 5 -72 17 -76 29 -11 38 9 20 46 -17 36 -28 45
-37 30z"/>
<path d="M32234 27488 l-19 -23 23 19 c21 18 27 26 19 26 -2 0 -12 -10 -23
-22z"/>
<path d="M6302 27390 c3 -39 10 -67 21 -77 16 -16 17 -15 17 15 0 46 -20 122
-32 122 -6 0 -9 -24 -6 -60z"/>
<path d="M21273 27403 c13 -45 26 -65 38 -57 15 9 10 50 -8 66 -37 32 -42 30
-30 -9z"/>
<path d="M33910 27428 c0 -26 18 -68 30 -68 16 0 11 33 -10 60 -15 19 -20 21
-20 8z"/>
<path d="M14076 27372 c-3 -5 1 -18 9 -28 14 -18 14 -18 15 3 0 23 -15 39 -24
25z"/>
<path d="M25045 27350 c-3 -5 -4 -19 -1 -32 3 -13 7 -35 11 -50 3 -16 12 -28
20 -28 8 0 15 -4 15 -9 0 -5 6 -11 14 -14 16 -6 9 19 -28 106 -17 39 -21 43
-31 27z"/>
<path d="M16180 27330 c0 -19 11 -26 23 -14 8 8 -3 34 -14 34 -5 0 -9 -9 -9
-20z"/>
<path d="M21321 27308 c1 -41 24 -103 38 -103 7 0 19 -13 26 -30 9 -20 14 -24
14 -12 2 30 21 8 21 -23 0 -16 8 -36 18 -46 16 -17 17 -16 20 11 2 18 -4 38
-17 54 -12 14 -26 37 -32 51 -44 101 -55 120 -71 120 -12 0 -18 -7 -17 -22z"/>
<path d="M26850 27259 c0 -131 17 -246 39 -278 12 -16 21 -38 21 -50 0 -20
-46 -71 -64 -71 -5 0 -30 -13 -56 -30 -26 -16 -70 -34 -98 -40 -71 -13 -121
-35 -143 -64 -32 -40 -135 -85 -220 -96 -41 -5 -109 -18 -150 -28 -175 -46
-399 -76 -501 -67 -75 6 -78 6 -78 -15 0 -28 43 -66 83 -74 40 -7 202 8 363
34 144 23 445 119 544 173 36 20 108 52 160 73 131 51 163 68 195 105 33 41
32 76 -13 239 -17 63 -40 145 -50 182 -10 37 -21 71 -25 74 -4 4 -7 -26 -7
-67z"/>
<path d="M32980 27314 c0 -11 7 -29 15 -40 19 -25 19 -4 0 32 -12 24 -15 26
-15 8z"/>
<path d="M16050 27265 c-19 -20 -52 -41 -73 -47 -29 -9 -43 -21 -58 -50 -16
-30 -25 -38 -48 -38 -35 0 -60 -27 -68 -74 -8 -49 6 -46 70 14 107 102 199
180 213 180 8 0 14 10 14 25 0 34 -10 32 -50 -10z"/>
<path d="M34016 27277 c3 -10 9 -15 12 -12 3 3 0 11 -7 18 -10 9 -11 8 -5 -6z"/>
<path d="M20420 27230 c0 -17 19 -50 29 -50 13 0 -3 53 -17 58 -7 2 -12 -2
-12 -8z"/>
<path d="M31402 27193 c14 -52 27 -75 52 -95 37 -31 36 -20 -4 54 -45 83 -64
99 -48 41z"/>
<path d="M20500 27122 c0 -5 6 -16 13 -27 16 -20 31 -7 21 19 -6 16 -34 23
-34 8z"/>
<path d="M23716 27104 c-26 -26 -18 -39 9 -14 14 13 25 25 25 27 0 9 -20 1
-34 -13z"/>
<path d="M34195 27087 c-4 -10 -5 -21 -1 -24 10 -10 18 4 13 24 -4 17 -4 17
-12 0z"/>
<path d="M21851 27076 c-14 -17 4 -100 19 -91 13 8 13 52 0 60 -6 4 -8 15 -5
26 7 23 2 24 -14 5z"/>
<path d="M21465 27040 c4 -19 16 -50 26 -68 10 -18 19 -40 19 -48 0 -17 26
-19 37 -1 5 8 9 2 13 -18 3 -17 11 -30 20 -30 9 0 15 -10 15 -25 0 -15 6 -25
15 -25 25 0 23 34 -4 65 -14 17 -42 62 -62 101 -22 42 -42 68 -49 65 -7 -2
-18 1 -25 7 -9 9 -11 4 -5 -23z"/>
<path d="M34240 27055 c0 -8 5 -15 10 -15 6 0 10 7 10 15 0 8 -4 15 -10 15 -5
0 -10 -7 -10 -15z"/>
<path d="M20560 27029 c0 -30 20 -52 37 -41 7 5 3 17 -13 37 l-24 30 0 -26z"/>
<path d="M23620 27026 c-25 -12 -51 -34 -57 -48 -7 -14 -28 -32 -45 -39 -18
-7 -48 -24 -67 -36 -19 -13 -47 -23 -62 -23 -17 0 -49 -15 -78 -35 -26 -19
-53 -35 -60 -35 -18 0 -103 -78 -133 -123 -19 -28 -70 -57 -100 -57 -28 0 -76
-27 -88 -50 -6 -11 -17 -20 -24 -20 -8 0 -19 -7 -26 -15 -7 -8 -28 -15 -47
-15 -18 0 -50 -8 -71 -19 -32 -16 -160 -39 -185 -33 -4 1 -58 4 -120 7 -103 4
-114 7 -133 29 -12 13 -31 27 -42 30 -12 4 -30 18 -41 32 -10 13 -23 24 -29
24 -16 0 -23 -31 -11 -46 16 -20 99 -64 119 -64 10 0 24 -7 31 -16 26 -31 141
-65 221 -65 112 1 307 68 369 127 16 15 32 25 35 21 9 -8 43 10 134 72 41 28
98 67 125 85 28 19 61 46 74 60 14 14 29 26 35 26 14 0 153 91 186 121 14 13
43 33 64 44 37 20 85 70 75 79 -2 3 -24 -6 -49 -18z"/>
<path d="M25235 27006 c6 -41 4 -50 -15 -71 -12 -13 -34 -29 -48 -35 -35 -15
-98 -98 -107 -141 -11 -49 -31 -74 -75 -94 -22 -10 -42 -25 -45 -34 -3 -9 -29
-42 -59 -73 -40 -44 -60 -58 -81 -58 -16 0 -36 -7 -44 -14 -22 -20 -77 -7
-133 31 -25 17 -55 33 -69 36 -13 4 -39 20 -58 37 -61 54 -47 21 20 -46 71
-71 182 -144 220 -144 70 0 101 13 150 63 27 27 49 56 49 63 0 7 8 15 18 18
10 3 56 56 102 118 47 61 111 140 143 175 73 80 81 99 61 157 -22 64 -37 70
-29 12z"/>
<path d="M15744 27025 c-12 -8 -24 -12 -27 -9 -3 4 -16 -15 -28 -41 -25 -54
-59 -76 -84 -55 -14 12 -18 11 -26 -1 -5 -8 -9 -17 -9 -21 0 -5 -9 -8 -20 -8
-11 0 -23 -7 -26 -15 -5 -11 -9 -12 -25 -2 -14 9 -22 9 -27 1 -4 -6 -18 -14
-32 -18 -14 -4 -35 -12 -47 -18 -17 -8 -26 -8 -38 2 -8 7 -16 11 -18 9 -1 -2
-9 -17 -17 -34 -9 -16 -25 -31 -35 -33 -11 -2 -27 -10 -36 -18 -14 -13 -18
-12 -29 1 -19 23 -31 18 -28 -12 3 -25 0 -28 -32 -31 -19 -2 -38 -9 -42 -15
-5 -8 -12 -6 -26 6 -27 25 -34 21 -27 -14 7 -29 6 -30 -15 -19 -15 8 -25 9
-33 1 -6 -6 -16 -7 -27 -1 -9 5 -30 8 -46 8 -17 -1 -54 11 -83 26 -29 14 -61
26 -72 26 -11 0 -32 9 -47 19 -26 19 -92 20 -92 1 0 -4 51 -35 114 -69 82 -44
131 -65 175 -72 108 -17 158 -1 428 133 133 66 250 129 259 139 9 10 22 19 27
19 6 0 18 7 28 16 10 9 37 26 61 39 31 17 43 29 43 46 0 28 -14 33 -41 14z"/>
<path d="M34280 27030 c0 -5 5 -10 10 -10 6 0 10 5 10 10 0 6 -4 10 -10 10 -5
0 -10 -4 -10 -10z"/>
<path d="M31613 27015 c2 -5 17 -8 33 -7 45 6 48 18 4 17 -22 0 -38 -4 -37
-10z"/>
<path d="M9777 26883 c-56 -212 -71 -313 -47 -313 15 0 26 28 55 140 24 92 47
310 33 310 -2 0 -21 -62 -41 -137z"/>
<path d="M20621 26973 c-1 -18 4 -33 9 -33 12 0 12 17 0 45 -7 17 -9 15 -9
-12z"/>
<path d="M14425 26924 c36 -28 61 -36 30 -10 -16 14 -34 25 -40 25 -5 0 -1 -7
10 -15z"/>
<path d="M33185 26901 c8 -17 19 -33 25 -36 5 -3 1 10 -11 29 -25 43 -36 48
-14 7z"/>
<path d="M30410 26883 c0 -21 44 -103 55 -103 2 0 1 19 -2 43 -9 70 -53 121
-53 60z"/>
<path d="M20664 26873 c8 -16 22 -37 30 -48 16 -19 16 -19 30 -2 20 25 12 40
-30 60 -46 22 -47 22 -30 -10z"/>
<path d="M14500 26871 c0 -16 52 -37 83 -33 26 3 36 16 20 25 -20 11 -103 17
-103 8z"/>
<path d="M33240 26830 c0 -13 59 -65 73 -65 17 0 21 43 6 61 -12 14 -14 14
-27 -3 -12 -17 -14 -17 -23 0 -11 18 -29 23 -29 7z"/>
<path d="M20752 26798 c-18 -18 -15 -25 21 -57 32 -29 32 -29 39 -8 12 43 9
55 -12 50 -14 -4 -20 0 -20 11 0 19 -11 21 -28 4z"/>
<path d="M21640 26796 c0 -9 4 -24 9 -34 5 -9 12 -25 15 -34 6 -20 14 -22 36
-8 13 8 12 14 -5 47 -21 39 -55 57 -55 29z"/>
<path d="M22013 26793 c-21 -8 -15 -28 16 -51 29 -21 30 -21 36 -2 4 12 -1 26
-14 39 -12 12 -22 21 -23 20 -2 0 -9 -3 -15 -6z"/>
<path d="M20840 26680 c0 -16 5 -30 10 -30 6 0 10 3 10 8 0 4 3 17 6 30 5 16
2 22 -10 22 -11 0 -16 -9 -16 -30z"/>
<path d="M21710 26690 c-9 -17 -8 -25 4 -39 9 -10 16 -22 16 -27 0 -13 37 -44
53 -44 7 0 22 -21 35 -47 20 -42 66 -82 80 -68 8 8 -50 97 -67 102 -9 2 -29
28 -45 58 -15 29 -36 61 -46 70 -17 16 -19 15 -30 -5z"/>
<path d="M22091 26701 c-12 -8 -12 -12 -2 -25 16 -19 31 -12 31 15 0 21 -7 23
-29 10z"/>
<path d="M20876 26656 c-6 -26 1 -56 14 -56 21 0 30 28 19 54 -15 32 -25 33
-33 2z"/>
<path d="M20935 26580 c-4 -14 2 -30 18 -50 14 -16 27 -35 29 -41 2 -7 11 -10
19 -7 11 4 14 17 11 47 -4 37 -6 40 -28 35 -20 -5 -24 -2 -24 15 0 27 -17 27
-25 1z"/>
<path d="M21043 26454 c-18 -8 26 -76 46 -72 9 2 15 12 13 23 -1 11 -3 28 -4
38 -2 16 -28 22 -55 11z"/>
<path d="M21920 26433 c0 -19 18 -40 49 -58 8 -5 2 9 -14 31 -16 21 -30 41
-32 43 -2 2 -3 -5 -3 -16z"/>
<path d="M21136 26347 c-16 -12 -15 -14 9 -37 23 -22 27 -22 41 -8 13 13 14
19 2 37 -15 24 -27 26 -52 8z"/>
<path d="M22010 26324 c1 -23 51 -87 105 -134 l29 -25 -20 31 c-24 39 -114
141 -114 128z"/>
<path d="M21216 26277 c-10 -7 -17 -22 -15 -32 4 -17 6 -15 22 9 21 32 18 41
-7 23z"/>
<path d="M21254 26240 c-35 -14 -36 -27 -3 -54 33 -28 44 -31 54 -16 4 6 -5
10 -19 10 -29 0 -33 12 -11 30 15 13 21 40 8 39 -5 0 -18 -4 -29 -9z"/>
<path d="M21337 26134 c-20 -20 19 -84 51 -84 14 0 14 1 17 54 2 39 2 40 -16
18 -21 -27 -28 -27 -37 -2 -4 12 -11 18 -15 14z"/>
<path d="M14637 26123 c-3 -2 1 -23 9 -46 8 -23 13 -46 10 -52 -7 -18 31 -56
49 -49 19 8 15 36 -16 101 -19 39 -40 58 -52 46z"/>
<path d="M22190 26111 c0 -5 5 -13 10 -16 6 -3 10 -15 10 -26 0 -14 7 -19 25
-19 16 0 22 4 19 13 -8 18 -64 60 -64 48z"/>
<path d="M21453 26023 c-19 -3 -33 -10 -33 -18 0 -13 58 -61 65 -54 8 9 16 79
9 77 -5 0 -24 -3 -41 -5z"/>
<path d="M22320 25986 c0 -2 8 -10 18 -17 15 -13 16 -12 3 4 -13 16 -21 21
-21 13z"/>
<path d="M14716 25913 c-7 -66 9 -148 27 -136 5 3 14 -1 19 -8 7 -10 8 -8 3 8
-3 12 -1 24 5 28 17 10 11 46 -19 110 l-28 60 -7 -62z"/>
<path d="M21560 25884 c0 -59 23 -55 27 4 2 32 -1 42 -12 42 -11 0 -15 -12
-15 -46z"/>
<path d="M21514 25909 c-3 -6 -2 -15 3 -20 5 -5 14 0 21 11 10 17 10 20 -2 20
-8 0 -18 -5 -22 -11z"/>
<path d="M22410 25885 c7 -8 22 -15 34 -15 21 1 21 1 2 15 -27 21 -53 20 -36
0z"/>
<path d="M21606 25834 c-8 -30 -1 -44 23 -44 10 0 21 -9 24 -19 3 -14 11 -18
26 -14 20 5 26 -3 22 -34 -1 -7 7 -13 17 -13 13 0 19 -6 18 -17 0 -12 7 -19
21 -21 13 -2 37 -20 55 -41 59 -68 308 -227 533 -340 69 -35 278 -112 330
-122 163 -31 283 -41 540 -42 215 -1 295 3 390 17 124 19 140 23 363 100 191
66 202 73 202 132 0 33 -26 41 -53 16 -33 -31 -65 -40 -147 -41 -112 -2 -300
-40 -396 -81 -87 -38 -238 -53 -449 -47 -209 7 -304 21 -440 65 -90 29 -134
40 -255 63 -73 14 -118 33 -127 54 -6 18 -116 75 -144 75 -12 0 -32 9 -46 20
-14 11 -37 20 -50 20 -14 0 -38 13 -55 30 -16 17 -33 30 -38 30 -23 0 -59 24
-64 43 -4 17 -7 18 -21 7 -14 -11 -17 -10 -22 8 -3 11 -15 22 -27 24 -16 2
-21 9 -19 30 1 24 -1 26 -21 18 -20 -7 -31 -1 -75 40 -28 26 -51 54 -51 62 0
7 -13 21 -29 31 -29 17 -29 17 -35 -9z"/>
<path d="M22496 25811 c15 -16 84 -42 84 -32 0 5 -15 16 -34 25 -38 18 -66 22
-50 7z"/>
<path d="M14796 25760 c8 -44 37 -92 42 -69 1 8 -9 35 -23 60 l-25 44 6 -35z"/>
<path d="M22620 25740 c8 -5 22 -9 30 -9 10 0 8 3 -5 9 -27 12 -43 12 -25 0z"/>
<path d="M14842 25638 c2 -25 8 -34 26 -36 26 -4 29 14 6 46 -22 32 -36 27
-32 -10z"/>
<path d="M15310 25250 c8 -5 20 -10 25 -10 6 0 3 5 -5 10 -8 5 -19 10 -25 10
-5 0 -3 -5 5 -10z"/>
<path d="M13802 25193 c-18 -33 5 -59 85 -101 43 -22 90 -43 104 -45 13 -3 40
-11 59 -19 19 -8 60 -21 90 -28 30 -7 64 -19 75 -26 25 -18 41 -18 26 -1 -6 8
-8 17 -5 20 4 3 -5 12 -20 18 -14 7 -26 20 -26 30 0 13 -14 21 -57 30 -32 7
-64 17 -70 22 -9 6 -18 5 -28 -3 -13 -11 -18 -10 -30 6 -12 16 -16 17 -24 5
-7 -11 -11 -10 -20 8 -7 11 -19 21 -28 21 -9 0 -38 18 -64 40 -26 22 -50 40
-53 40 -3 0 -9 -8 -14 -17z"/>
<path d="M28091 25107 c-9 -12 -41 -91 -41 -103 0 -12 17 0 34 22 33 47 40
121 7 81z"/>
<path d="M14304 24984 c4 -11 -1 -18 -14 -21 -24 -6 -27 -23 -4 -23 9 0 31 -9
48 -19 29 -18 125 -41 185 -45 13 0 28 7 35 17 9 15 7 21 -9 33 -11 8 -29 14
-40 12 -11 -1 -26 1 -33 6 -8 5 -18 4 -25 -3 -16 -16 -24 -14 -31 12 l-7 22
-16 -22 c-22 -32 -33 -28 -27 10 l5 32 -18 -27 c-19 -30 -39 -38 -29 -13 7 18
-3 45 -16 45 -6 0 -7 -7 -4 -16z"/>
<path d="M22586 23448 c-10 -16 -24 -28 -31 -28 -15 0 -22 -19 -27 -70 -2 -26
1 -35 12 -35 19 0 72 108 68 138 -3 21 -4 21 -22 -5z"/>
<path d="M13356 23398 c-3 -10 -8 -24 -10 -30 -2 -7 -11 -30 -20 -50 -9 -21
-14 -38 -11 -38 10 0 56 112 52 124 -3 6 -7 3 -11 -6z"/>
<path d="M22444 23293 c-7 -5 -17 -26 -23 -48 -6 -22 -19 -56 -30 -75 -10 -19
-22 -55 -26 -80 -7 -39 -6 -43 8 -32 8 7 20 32 26 57 7 28 29 64 61 101 28 32
49 62 47 68 -4 13 -48 19 -63 9z"/>
<path d="M11471 23050 c-36 -9 -52 -25 -44 -47 7 -18 17 -17 63 7 22 11 64 27
93 35 l52 14 -65 -1 c-36 0 -80 -4 -99 -8z"/>
<path d="M22311 22931 c-13 -31 -21 -70 -20 -103 l0 -53 18 70 c22 83 32 135
27 135 -2 0 -13 -22 -25 -49z"/>
<path d="M11310 22912 l-55 -27 -38 -100 c-43 -115 -43 -144 -1 -66 16 29 57
91 91 137 34 46 61 84 60 83 -1 0 -27 -12 -57 -27z"/>
<path d="M13064 22725 c-19 -14 -19 -14 2 -15 12 0 27 7 34 15 17 20 -9 21
-36 0z"/>
<path d="M23280 22660 c-52 -27 -61 -28 -157 -25 -57 2 -103 1 -103 -1 0 -13
67 -34 108 -34 68 0 173 34 202 65 30 32 18 31 -50 -5z"/>
<path d="M28530 22164 c-19 -13 -42 -24 -52 -24 -16 0 -78 -57 -78 -72 0 -4
-15 -39 -34 -78 -19 -38 -37 -88 -41 -111 -4 -23 -19 -55 -36 -74 -32 -36 -79
-150 -79 -191 0 -15 -9 -43 -19 -63 -20 -39 -91 -221 -111 -286 -7 -22 -18
-47 -26 -55 -15 -18 -59 -132 -84 -221 -11 -36 -35 -103 -55 -150 -20 -46 -52
-127 -72 -179 -19 -52 -53 -131 -75 -175 -22 -44 -50 -118 -62 -165 -31 -111
-128 -353 -160 -394 -13 -18 -35 -55 -49 -83 -75 -156 -278 -344 -439 -405
-111 -42 -223 -10 -315 90 l-53 57 0 -35 c0 -41 56 -121 108 -157 59 -39 158
-66 222 -60 166 15 386 204 528 455 63 111 159 320 205 447 14 39 37 97 52
130 15 33 35 85 45 115 10 30 51 147 90 260 40 113 97 282 127 375 30 94 70
206 89 250 20 43 41 109 49 146 8 36 32 104 55 152 22 47 40 89 40 93 0 4 15
37 34 73 18 36 39 84 46 106 7 22 24 59 37 82 24 42 105 123 122 123 10 0 36
39 29 45 -2 2 -19 -8 -38 -21z"/>
<path d="M12359 22083 c-2 -43 -4 -379 -4 -748 0 -617 1 -673 17 -702 17 -30
75 -80 83 -71 3 2 -5 31 -17 64 -25 67 -29 167 -47 1049 -11 551 -9 485 -20
485 -4 0 -10 -35 -12 -77z"/>
<path d="M27437 22129 c-18 -11 -47 -60 -47 -80 0 -7 20 8 45 33 25 25 45 49
45 52 0 9 -23 7 -43 -5z"/>
<path d="M15203 22080 c-13 -5 -23 -14 -23 -19 0 -5 -16 -18 -35 -30 -37 -21
-63 -67 -47 -83 6 -6 21 9 37 35 23 36 41 50 99 75 71 31 71 31 31 31 -22 0
-50 -4 -62 -9z"/>
<path d="M25714 22079 c-17 -5 -43 -20 -57 -33 -24 -22 -27 -33 -27 -86 0 -45
3 -61 13 -58 6 3 13 18 15 34 7 68 27 93 112 136 l35 17 -30 0 c-16 -1 -44 -5
-61 -10z"/>
<path d="M13640 22039 c-66 -27 -115 -109 -155 -262 -17 -64 -20 -121 -6 -113
5 3 14 43 21 88 7 46 23 103 35 128 25 48 81 112 130 148 31 22 18 28 -25 11z"/>
<path d="M17124 21981 c-18 -11 -45 -36 -60 -57 -32 -41 -48 -57 -82 -82 -48
-35 -57 -143 -68 -834 -3 -207 -3 -400 1 -428 5 -40 16 -62 40 -89 19 -20 37
-33 41 -29 4 5 -2 47 -14 95 -18 75 -22 122 -23 308 -1 121 -6 279 -10 350 -4
72 -4 218 0 325 6 173 9 199 27 225 12 17 34 50 50 74 29 45 135 131 160 131
8 0 14 7 14 15 0 21 -39 19 -76 -4z"/>
<path d="M24597 21985 c-48 -16 -59 -26 -124 -107 -61 -76 -73 -104 -72 -156
1 -33 2 -34 8 -12 18 58 65 143 96 173 18 18 57 41 85 51 51 18 71 39 54 56
-5 5 -26 3 -47 -5z"/>
<path d="M18145 21974 c-60 -21 -159 -106 -183 -156 -19 -39 -22 -73 -32 -388
-6 -190 -15 -448 -20 -575 -10 -257 -7 -306 24 -361 20 -37 88 -85 101 -73 3
3 -6 30 -19 60 -45 99 -49 158 -50 729 l-1 535 26 40 c43 64 130 139 214 183
l40 21 -30 0 c-16 0 -48 -7 -70 -15z"/>
<path d="M16445 21970 c3 -5 11 -10 16 -10 6 0 7 5 4 10 -3 6 -11 10 -16 10
-6 0 -7 -4 -4 -10z"/>
<path d="M24686 21911 c-4 -5 -1 -22 5 -38 10 -27 11 -27 25 -9 8 11 14 23 14
28 0 12 -38 29 -44 19z"/>
<path d="M24985 21740 l-56 -51 -70 5 c-71 5 -96 -8 -36 -19 40 -8 115 8 159
34 29 17 79 81 64 81 -3 0 -31 -23 -61 -50z"/>
<path d="M25726 21716 c-4 -25 -16 -56 -27 -69 -10 -14 -19 -30 -19 -36 0 -5
-10 -19 -22 -31 -26 -24 -18 -26 22 -5 49 25 70 62 70 121 0 66 -16 79 -24 20z"/>
<path d="M15171 21657 c-27 -66 -68 -103 -151 -136 l-55 -22 44 5 c30 3 62 17
99 43 74 51 94 80 90 129 l-3 39 -24 -58z"/>
<path d="M14476 21672 c-9 -27 -43 -56 -102 -86 -29 -15 -60 -36 -70 -48 -11
-11 -71 -45 -134 -75 -63 -30 -137 -71 -163 -90 -26 -19 -68 -41 -93 -49 -25
-7 -60 -25 -77 -40 -17 -14 -54 -37 -81 -50 -109 -52 -221 -121 -224 -138 -2
-9 -1 -24 2 -32 5 -13 11 -11 38 9 18 14 60 38 93 54 33 16 130 72 215 123 85
51 193 113 240 138 47 25 112 62 145 82 33 21 92 56 132 79 80 46 103 71 103
113 0 32 -16 38 -24 10z"/>
<path d="M21070 21600 c-155 -6 -185 -17 -195 -72 -3 -18 -5 -244 -3 -503 3
-432 4 -473 21 -507 16 -32 63 -76 72 -66 2 2 -8 50 -22 108 -25 103 -26 114
-27 506 -1 511 -25 471 291 480 109 3 253 9 321 15 68 5 130 9 140 9 10 0 13
3 6 10 -8 8 -116 14 -414 23 -30 1 -116 0 -190 -3z"/>
<path d="M18966 21575 c-4 -16 -11 -263 -16 -548 -9 -508 -9 -519 10 -557 11
-22 34 -50 51 -62 17 -13 38 -36 46 -51 13 -25 13 -31 -2 -53 l-16 -25 -282 4
c-155 2 -293 6 -307 8 -22 3 -25 0 -28 -27 -2 -21 4 -36 19 -50 20 -18 40 -19
293 -22 177 -2 287 1 316 8 116 29 121 106 14 233 -13 15 -33 58 -45 95 -20
63 -21 92 -26 542 -3 261 -8 489 -12 505 l-7 30 -8 -30z"/>
<path d="M29977 21493 c-8 -14 -16 -175 -23 -468 -7 -307 0 -386 38 -406 20
-11 20 -9 13 73 -4 45 -8 244 -9 440 -1 325 -5 385 -19 361z"/>
<path d="M22267 21420 c-30 -200 -38 -1044 -11 -1226 32 -218 112 -434 194
-524 34 -37 40 -41 34 -20 -3 14 -26 63 -49 110 -112 222 -130 350 -141 1047
-8 482 -16 682 -27 613z"/>
<path d="M25980 21290 c-104 -19 -166 -53 -277 -150 -102 -90 -125 -134 -131
-246 -5 -101 12 -186 43 -222 30 -33 31 -23 5 46 -12 31 -20 75 -20 110 1 98
36 167 119 235 25 21 73 60 106 88 58 49 186 121 209 118 29 -3 46 2 46 15 0
23 -9 24 -100 6z"/>
<path d="M15450 21289 c-72 -12 -118 -37 -215 -117 -92 -77 -95 -80 -134 -147
-32 -55 -47 -129 -36 -172 7 -27 8 -26 25 24 27 76 68 130 170 224 118 109
187 149 258 149 53 0 66 12 40 38 -14 14 -29 14 -108 1z"/>
<path d="M27581 21268 c-1 -30 45 -177 60 -192 5 -6 9 1 9 19 0 27 -21 92 -56
170 l-13 30 0 -27z"/>
<path d="M29386 21272 c-41 -9 -125 -74 -189 -145 -37 -42 -63 -78 -58 -82 6
-3 38 19 73 49 35 31 98 81 140 111 43 31 79 59 82 63 5 9 -20 11 -48 4z"/>
<path d="M24365 21015 c-4 -49 -5 -165 -2 -258 7 -171 15 -206 53 -238 16 -13
17 -11 11 16 -3 17 -13 57 -21 90 -11 43 -16 113 -17 245 -1 217 -12 281 -24
145z"/>
<path d="M15986 20904 c-13 -275 2 -342 77 -360 24 -5 26 -4 20 12 -4 11 -18
35 -31 54 -41 60 -45 80 -51 280 l-6 195 -9 -181z"/>
<path d="M26503 20995 c0 -33 2 -45 4 -27 2 18 2 45 0 60 -2 15 -4 0 -4 -33z"/>
<path d="M23334 20717 c-12 -127 -7 -178 21 -206 14 -14 27 -22 31 -18 3 3 1
48 -6 99 -6 51 -14 117 -17 146 -8 80 -20 71 -29 -21z"/>
<path d="M15071 20750 c0 -14 4 -32 9 -40 8 -12 10 -12 9 5 0 11 -4 29 -9 40
-8 18 -9 18 -9 -5z"/>
<path d="M26506 20662 c-9 -15 3 -58 20 -73 24 -19 26 -5 6 41 -11 26 -21 39
-26 32z"/>
<path d="M14377 20583 c-48 -77 -198 -205 -309 -265 -136 -74 -163 -81 -262
-75 -124 7 -250 67 -356 170 -19 19 -52 43 -72 55 l-36 20 21 -36 c23 -41 120
-141 182 -189 67 -51 121 -73 225 -90 92 -15 106 -15 182 0 66 13 95 25 152
64 101 67 237 176 279 222 35 39 61 106 55 139 -6 32 -36 25 -61 -15z"/>
<path d="M16110 20525 c0 -2 9 -19 20 -37 30 -49 26 -82 -12 -109 -18 -13 -61
-47 -96 -76 -35 -29 -75 -56 -90 -60 -15 -3 -60 0 -99 8 -40 9 -73 11 -73 7 0
-23 35 -58 68 -69 55 -18 141 -16 180 5 48 25 177 151 196 190 17 36 21 93 8
113 -13 21 -102 45 -102 28z"/>
<path d="M15525 20466 c-28 -19 -72 -55 -99 -80 -50 -48 -235 -147 -294 -159
-78 -16 -245 45 -319 116 -37 35 -39 33 -19 -14 15 -35 71 -93 117 -121 38
-24 156 -58 198 -58 87 1 201 61 332 176 126 112 188 117 252 24 10 -15 17
-19 17 -10 0 8 -9 26 -20 40 -11 14 -20 31 -20 39 0 26 -50 81 -73 81 -12 0
-45 -15 -72 -34z"/>
<path d="M26048 20475 c-25 -14 -56 -39 -69 -56 -24 -34 -86 -76 -205 -140
-63 -34 -88 -42 -143 -45 -108 -6 -244 44 -289 105 -23 32 -42 40 -42 19 0
-15 40 -67 90 -119 41 -42 154 -83 230 -83 106 1 233 64 359 178 78 71 121 96
166 96 30 0 31 9 4 44 -25 32 -41 32 -101 1z"/>
<path d="M26720 20475 c-16 -44 -57 -82 -127 -122 -35 -19 -76 -51 -92 -70
-27 -33 -32 -35 -88 -34 -32 0 -74 5 -93 11 -19 5 -36 10 -38 10 -1 0 8 -16
20 -35 27 -41 61 -55 132 -55 64 0 99 17 198 98 83 67 128 116 128 137 0 7 2
20 5 28 3 7 -3 25 -14 38 l-19 24 -12 -30z"/>
<path d="M29524 20470 c-34 -17 -69 -42 -79 -56 -9 -14 -40 -37 -68 -50 -67
-31 -110 -58 -171 -106 -44 -34 -55 -38 -107 -38 -50 0 -71 7 -148 48 -50 26
-100 55 -111 64 -28 25 -27 1 3 -43 43 -64 192 -134 280 -131 101 4 248 83
376 202 57 53 112 73 164 59 16 -5 27 -4 27 2 0 15 -73 79 -90 79 -8 0 -43
-14 -76 -30z"/>
<path d="M30180 20445 c-19 -14 -39 -25 -45 -25 -7 0 -35 -27 -64 -60 -55 -63
-121 -109 -162 -111 -13 -1 -45 1 -71 6 -55 8 -62 -2 -25 -39 28 -28 104 -40
160 -25 29 8 65 34 131 97 110 105 123 121 127 151 5 34 -11 35 -51 6z"/>
<path d="M12520 20333 c-41 -35 -94 -73 -118 -83 -23 -11 -45 -26 -48 -35 -4
-9 -25 -29 -49 -45 -23 -16 -48 -43 -55 -60 -13 -32 -72 -70 -109 -70 -17 0
-91 73 -91 91 0 3 -31 30 -69 59 -38 29 -75 63 -82 76 -25 47 -152 123 -185
110 -26 -10 3 -44 79 -94 73 -46 184 -139 241 -201 44 -47 110 -91 138 -91 33
0 77 29 144 97 33 32 95 86 139 120 44 34 92 74 106 90 28 29 53 90 41 97 -4
2 -41 -25 -82 -61z"/>
<path d="M17052 20336 c-22 -49 -41 -53 -282 -60 -212 -5 -259 -2 -338 22 -27
9 -33 8 -42 -8 -14 -26 -3 -48 34 -67 33 -18 173 -20 451 -7 160 8 189 18 206
74 10 34 10 43 -3 56 -13 13 -16 12 -26 -10z"/>
<path d="M18077 20330 c-11 -50 -26 -53 -357 -57 -167 -2 -308 -7 -313 -12
-14 -14 4 -39 35 -50 19 -7 138 -11 310 -11 310 0 335 4 358 61 10 23 10 35 0
59 -17 42 -27 45 -33 10z"/>
<path d="M24580 20321 c-7 -18 -21 -36 -31 -42 -31 -16 -541 -1 -613 19 -55
14 -60 14 -71 -2 -17 -23 -8 -54 21 -73 20 -13 74 -15 349 -16 312 -1 326 0
353 20 31 23 41 77 19 107 -13 17 -14 17 -27 -13z"/>
<path d="M20428 20330 c-13 -27 -55 -164 -62 -197 -3 -18 -2 -33 3 -33 17 0
60 61 66 93 8 42 2 156 -7 137z"/>
<path d="M21045 20301 c-9 -40 -26 -53 -166 -125 -142 -72 -200 -109 -249
-161 -19 -20 -56 -48 -82 -61 -26 -13 -53 -32 -60 -43 -21 -30 -118 -99 -149
-106 -15 -3 -35 -15 -45 -26 -9 -10 -27 -19 -40 -19 -53 0 -69 -23 -36 -53 27
-25 85 -21 144 9 29 14 129 82 222 149 259 187 324 232 407 285 76 49 99 79
99 128 0 27 -15 52 -31 52 -4 0 -10 -13 -14 -29z"/>
<path d="M23481 20304 c-36 -25 -77 -27 -626 -29 -56 0 -70 -3 -73 -16 -1 -9
8 -23 22 -32 58 -39 634 -50 702 -14 44 23 60 77 32 105 -15 15 -16 15 -57
-14z"/>
<path d="M21700 19997 c0 -22 45 -62 103 -92 54 -29 159 -104 297 -213 166
-131 206 -159 289 -207 47 -26 101 -50 122 -52 32 -5 39 -2 54 20 14 22 15 32
5 61 -6 19 -18 40 -26 46 -12 10 -14 7 -14 -18 0 -32 -21 -52 -55 -52 -8 0
-35 18 -58 40 -24 21 -67 50 -95 63 -28 13 -69 39 -90 58 -41 36 -98 80 -197
152 -33 24 -91 67 -130 95 -112 83 -205 128 -205 99z"/>
<path d="M26910 19832 c0 -17 32 -52 79 -86 88 -65 97 -42 16 39 -48 48 -95
71 -95 47z"/>
<path d="M20280 16278 c-14 -5 -41 -11 -60 -12 -19 -2 -42 -3 -51 -4 -8 -1
-32 -18 -53 -37 -21 -19 -44 -35 -50 -35 -18 0 -79 -140 -67 -154 14 -17 -13
-67 -50 -91 -17 -11 -44 -40 -61 -65 -17 -25 -39 -54 -48 -65 -10 -11 -34 -65
-55 -120 -20 -55 -54 -134 -75 -175 -20 -41 -41 -86 -45 -100 -4 -14 -27 -65
-51 -115 -62 -128 -77 -196 -71 -325 3 -71 11 -123 25 -160 43 -115 84 -206
109 -243 l26 -38 -29 -62 c-49 -105 -190 -233 -341 -311 -44 -22 -109 -65
-318 -207 -44 -29 -103 -68 -130 -86 -28 -17 -81 -56 -119 -86 -87 -70 -275
-182 -508 -303 -208 -109 -361 -199 -497 -292 -197 -135 -281 -174 -375 -177
-39 -2 -93 -6 -121 -10 -66 -10 -188 -68 -246 -116 -26 -22 -51 -39 -57 -39
-11 0 -135 -135 -168 -184 -98 -144 -136 -266 -102 -329 6 -12 10 -44 9 -72
-2 -65 19 -287 29 -300 4 -5 17 -62 29 -125 13 -63 32 -140 44 -170 37 -98
159 -319 196 -357 20 -20 48 -56 62 -79 25 -38 86 -94 103 -94 4 0 26 -16 49
-35 22 -19 42 -33 45 -30 2 2 -10 16 -27 30 -17 15 -31 36 -31 49 0 12 -6 30
-13 41 -32 48 -58 95 -53 95 10 0 161 -154 179 -183 13 -20 54 -46 140 -87
155 -73 206 -91 249 -84 29 5 37 2 51 -20 13 -20 26 -26 52 -26 48 0 44 15
-12 44 -27 14 -61 36 -77 49 l-29 23 39 24 c60 38 64 38 123 13 61 -24 141
-28 295 -14 74 6 80 9 112 44 25 27 34 46 34 73 0 41 11 66 52 113 40 46 49
74 37 111 -6 16 -15 30 -20 30 -23 0 -6 18 22 24 18 3 49 25 74 51 25 25 48
45 53 45 22 0 86 81 128 164 50 97 60 108 85 101 32 -10 195 -7 236 4 39 11
45 10 83 -15 48 -32 86 -29 190 15 36 16 82 32 101 36 19 4 47 18 62 31 41 34
101 47 186 40 80 -6 101 1 101 38 1 31 34 99 64 129 19 19 26 36 26 65 0 35
-3 40 -44 60 -24 12 -52 22 -64 22 -35 0 -176 32 -204 46 -40 21 -53 72 -53
209 0 219 25 297 97 303 30 3 40 -2 64 -31 16 -19 41 -42 55 -51 23 -15 27
-25 31 -79 3 -52 10 -72 43 -121 66 -100 182 -167 254 -146 19 5 48 23 65 39
27 25 153 101 169 101 3 0 3 -17 0 -37 -4 -33 -1 -42 27 -67 30 -26 38 -28
107 -27 47 1 84 -4 102 -14 27 -13 30 -13 51 10 13 14 29 25 35 25 6 0 20 8
31 18 10 10 36 26 56 35 20 10 40 22 43 27 3 6 25 19 48 31 93 46 127 67 182
114 87 75 163 154 170 176 4 10 10 19 15 19 13 0 31 73 29 117 -3 44 -17 80
-41 107 -10 11 -18 26 -18 33 0 45 -191 66 -260 29 -19 -10 -75 -59 -125 -109
-107 -107 -117 -114 -180 -126 -75 -14 -80 -9 -80 84 0 79 -1 82 -38 127 -87
107 -187 137 -327 100 -41 -11 -81 -17 -88 -15 -22 9 -32 40 -38 115 -7 93 0
105 134 232 85 81 107 97 129 94 16 -2 32 -12 39 -25 18 -38 46 -63 91 -83 35
-15 53 -17 95 -11 29 5 54 9 56 10 1 1 8 1 16 1 25 0 82 65 101 115 34 90 16
282 -31 332 -22 23 -25 34 -20 68 4 22 10 69 15 105 5 43 18 84 39 121 37 65
40 109 11 150 -28 39 -11 64 38 56 49 -8 121 17 162 56 20 19 61 45 91 58 62
25 97 52 106 83 11 35 35 55 134 111 101 57 144 93 191 161 22 33 38 44 73 53
29 7 50 19 58 34 26 46 77 224 77 269 1 26 7 78 15 115 25 119 26 126 10 188
-20 80 -37 115 -71 146 -48 45 -76 57 -148 64 -107 9 -112 12 -154 68 -33 46
-53 60 -135 100 -53 25 -118 53 -144 60 -26 8 -76 27 -112 42 -51 21 -74 26
-110 21 -25 -3 -51 -2 -58 3 -7 4 -17 33 -21 64 -4 31 -13 63 -20 71 -11 13
-102 34 -123 28 -5 -1 -8 3 -8 9 0 5 -5 7 -11 3 -6 -3 -14 -3 -18 2 -3 5 -22
21 -41 35 -29 21 -40 24 -60 17z m-2080 -3787 c0 -10 -18 -54 -40 -99 -45 -90
-60 -153 -60 -251 0 -36 -6 -87 -14 -112 -8 -25 -17 -77 -21 -115 -14 -146
-23 -170 -81 -215 -57 -43 -89 -87 -114 -154 -21 -55 -44 -55 -100 -3 -42 40
-107 92 -160 128 -29 20 -66 77 -74 118 -6 25 1 49 32 119 23 49 48 115 58
148 26 94 45 126 119 200 92 91 159 138 320 225 61 32 135 38 135 11z"/>
<path d="M24506 11257 c-25 -26 -61 -112 -78 -190 -12 -57 -1 -88 39 -106 37
-17 243 -67 373 -91 63 -12 183 -35 267 -51 248 -49 1759 -303 2518 -424 50
-8 162 -26 250 -40 356 -56 637 -87 836 -91 124 -3 206 -1 224 6 38 15 123 81
131 103 6 20 -28 76 -75 121 -55 53 -283 119 -651 190 -229 44 -727 126 -1065
176 -77 12 -234 36 -350 55 -115 18 -244 38 -286 44 -81 11 -425 64 -524 81
-33 6 -139 22 -235 36 -96 14 -251 38 -345 54 -93 16 -206 34 -250 40 -44 6
-168 27 -275 45 -228 40 -400 65 -447 65 -22 0 -42 -8 -57 -23z"/>
<path d="M21280 10729 c-47 -10 -124 -18 -172 -19 -65 0 -108 -7 -170 -26
-115 -36 -136 -50 -165 -112 -14 -29 -33 -56 -42 -59 -9 -4 -29 -16 -46 -28
-16 -12 -46 -29 -65 -38 -19 -8 -55 -30 -80 -48 -71 -52 -164 -115 -188 -128
-21 -11 -24 -9 -33 18 -10 27 -13 29 -37 20 -43 -16 -113 -80 -128 -115 -17
-40 -8 -70 36 -115 16 -18 30 -35 30 -38 0 -23 -39 -272 -44 -280 -3 -5 -8
-27 -11 -50 -3 -22 -13 -55 -23 -73 -18 -32 -33 -42 -222 -144 -58 -32 -118
-68 -133 -81 -16 -13 -39 -23 -52 -23 -13 0 -36 -5 -50 -10 -38 -15 -159 -116
-234 -196 -35 -38 -83 -90 -107 -115 -47 -51 -84 -114 -84 -144 0 -24 -33 -79
-77 -129 -27 -30 -38 -35 -58 -30 -16 4 -25 2 -25 -5 0 -13 -176 -282 -210
-321 -12 -14 -36 -45 -52 -70 -43 -62 -139 -153 -188 -177 -14 -7 -44 -11 -66
-10 -55 2 -74 -15 -74 -67 0 -53 -9 -65 -42 -59 -36 7 -79 71 -86 128 -2 25
-10 45 -17 45 -22 0 -138 -88 -212 -161 -87 -86 -110 -131 -119 -224 -6 -69
-5 -71 35 -132 54 -83 100 -107 185 -100 34 3 71 7 82 10 47 12 110 51 155 98
41 42 52 49 74 43 26 -6 50 -36 38 -48 -3 -3 -1 -6 5 -6 7 0 12 -6 12 -14 0
-8 8 -17 18 -20 69 -21 134 -25 187 -11 80 21 191 115 274 230 33 46 35 47 77
42 51 -5 65 2 147 82 54 52 117 151 117 184 0 8 7 20 15 27 8 7 15 18 15 25 0
7 12 39 27 71 15 33 28 65 29 73 2 8 9 18 16 22 7 5 9 9 5 9 -4 0 3 15 16 33
33 44 58 93 50 101 -4 3 1 6 11 6 9 0 14 5 11 10 -3 6 -2 10 3 10 5 0 14 11
20 25 15 32 15 38 1 29 -8 -4 -8 -1 -1 12 19 37 233 244 255 248 198 36 253
55 296 98 l40 41 88 1 c104 2 127 12 205 91 34 33 64 55 77 55 12 0 19 -4 16
-10 -3 -5 2 -10 12 -10 15 0 16 -2 3 -10 -12 -8 -10 -10 8 -10 21 0 22 -2 8
-15 -19 -20 -10 -45 18 -46 19 -1 19 -2 -4 -9 -21 -7 -17 -8 21 -9 28 -1 46
-6 47 -13 1 -7 3 -31 5 -53 4 -41 45 -134 75 -170 9 -11 43 -28 75 -38 48 -15
60 -24 76 -55 11 -21 21 -51 24 -67 2 -17 12 -47 21 -69 9 -21 16 -46 16 -56
0 -10 7 -23 15 -30 8 -7 14 -18 13 -24 -3 -17 12 -56 23 -56 5 0 9 -5 9 -10 0
-18 163 -180 205 -205 76 -45 190 -50 265 -10 58 30 76 28 120 -16 22 -23 40
-37 40 -32 0 4 8 -5 18 -22 11 -16 26 -36 35 -44 10 -7 17 -18 17 -23 0 -12
98 -108 111 -108 5 0 9 -7 9 -15 0 -8 18 -33 40 -56 22 -23 40 -46 40 -51 0
-4 6 -8 13 -8 7 0 29 -18 49 -39 37 -41 73 -60 148 -81 25 -7 65 -21 90 -32
25 -11 59 -26 76 -34 74 -32 281 -73 372 -74 72 0 156 54 200 129 24 41 27 55
27 144 l0 100 57 52 c67 61 90 112 87 195 -5 111 -41 177 -123 225 l-51 30 3
90 c4 85 2 93 -28 150 -41 77 -46 83 -97 107 -50 24 -96 20 -174 -14 -27 -11
-60 -18 -74 -16 -14 3 -28 1 -31 -4 -9 -15 -34 13 -34 38 0 19 5 24 24 24 33
0 57 10 50 21 -3 5 0 9 6 9 6 0 18 7 27 15 8 8 19 12 25 9 7 -4 8 -2 4 4 -4 7
-2 12 4 12 13 0 49 40 50 55 0 6 10 21 21 34 17 21 28 24 74 23 34 -1 82 8
127 23 95 31 145 40 161 27 21 -18 254 -90 331 -103 95 -16 126 -4 219 87 55
54 71 64 89 59 30 -9 262 -124 363 -180 97 -54 226 -106 280 -113 26 -3 61
-20 100 -49 33 -25 76 -54 97 -64 21 -11 38 -25 38 -31 0 -6 3 -9 6 -5 3 3 19
-8 35 -24 15 -16 37 -29 48 -29 11 0 23 -4 26 -10 7 -11 145 -13 160 -2 27 18
-3 142 -34 142 -20 0 -28 46 -14 85 35 100 -19 243 -156 406 -100 120 -180
197 -267 260 -150 108 -222 124 -404 89 -133 -26 -139 -25 -272 53 -57 34 -95
46 -174 53 -46 4 -68 2 -85 -9 -13 -9 -46 -21 -74 -27 -27 -6 -65 -23 -84 -37
-19 -15 -31 -20 -27 -12 5 10 4 10 -6 -1 -25 -30 -59 -47 -83 -42 -14 2 -25 8
-25 13 0 5 -7 9 -15 9 -15 0 -55 19 -65 31 -20 22 -135 88 -179 102 -81 26
-183 20 -218 -12 -30 -28 -111 -52 -97 -29 3 4 -7 8 -21 8 -14 0 -24 4 -21 9
4 5 1 11 -4 13 -6 2 -12 11 -13 20 -2 9 -8 22 -14 29 -11 14 -13 19 -13 38 0
5 -20 17 -45 27 -25 9 -57 27 -72 39 -32 29 -52 38 -126 59 -63 19 -127 71
-127 104 0 19 -37 80 -66 109 -8 8 -14 18 -14 22 0 12 -36 51 -46 51 -18 0
-159 93 -181 119 -13 14 -27 26 -32 26 -5 0 -13 3 -16 7 -4 4 -21 0 -38 -8
-39 -21 -83 -12 -114 24 -13 15 -44 69 -69 120 -40 80 -45 99 -40 135 7 50 -3
66 -59 95 -58 29 -89 31 -185 11z m-140 -783 c0 -20 -26 -40 -35 -26 -10 16 2
40 20 40 8 0 15 -6 15 -14z m3698 -1333 c-10 -2 -26 -2 -35 0 -10 3 -2 5 17 5
19 0 27 -2 18 -5z"/>
<path d="M18151 9558 c-5 -13 -14 -43 -20 -68 -6 -25 -22 -88 -36 -140 -27
-101 -45 -283 -28 -293 5 -3 49 47 97 113 48 65 96 126 106 135 46 42 34 105
-40 214 -43 65 -65 75 -79 39z"/>
<path d="M17754 9163 c-60 -65 -144 -156 -185 -203 -40 -47 -129 -145 -196
-218 -67 -73 -171 -190 -230 -259 -59 -69 -152 -176 -206 -237 -54 -61 -173
-199 -264 -306 -92 -107 -212 -246 -268 -309 -55 -62 -169 -195 -254 -295
-300 -354 -538 -615 -605 -666 -26 -19 -60 -55 -77 -81 -17 -27 -46 -57 -65
-68 -19 -11 -34 -27 -34 -36 0 -8 -4 -15 -8 -15 -5 0 -14 -11 -21 -24 -7 -12
-36 -33 -64 -45 -46 -21 -55 -22 -91 -10 -22 7 -64 29 -95 47 -75 46 -162 92
-172 92 -5 0 -40 21 -79 46 -58 37 -86 48 -158 61 -325 58 -439 105 -647 267
-33 26 -92 63 -132 83 -70 35 -75 36 -194 36 l-123 1 -60 63 c-34 35 -68 63
-78 63 -9 0 -26 -16 -38 -35 -12 -19 -28 -35 -36 -35 -19 0 -111 -46 -119 -60
-3 -5 -25 -10 -49 -10 -50 0 -134 39 -189 87 -20 18 -44 33 -52 33 -8 0 -15 4
-15 9 0 5 -11 12 -25 15 -13 3 -54 29 -91 57 -68 51 -114 69 -136 52 -7 -6
-25 -13 -41 -17 -15 -4 -36 -15 -47 -26 -19 -19 -19 -29 -13 -169 6 -146 6
-149 -16 -160 -18 -10 -28 -8 -68 19 -25 17 -75 47 -112 67 -36 20 -73 45 -82
55 -9 10 -21 18 -26 18 -10 0 -73 62 -73 73 0 8 -40 48 -70 69 -14 10 -47 33
-75 53 -27 19 -54 35 -58 35 -14 0 -36 27 -47 56 -6 15 -13 24 -16 21 -8 -7
-54 38 -54 53 0 6 -4 8 -10 5 -5 -3 -10 1 -10 10 0 8 -8 19 -17 22 -10 4 -30
15 -45 26 -14 11 -31 17 -36 13 -6 -3 -14 -1 -17 5 -5 7 -16 2 -32 -12 l-24
-23 -78 42 -79 42 -6 -26 c-6 -22 4 -105 30 -244 12 -67 7 -82 -41 -129 -45
-44 -48 -45 -73 -30 -24 13 -65 84 -109 186 -14 30 -86 83 -115 83 -42 0 -97
33 -124 73 -33 51 -38 56 -97 119 -26 28 -50 63 -54 77 -3 14 -10 28 -14 32
-5 3 -19 34 -32 70 -34 95 -43 107 -82 114 -19 3 -51 7 -70 10 -25 4 -42 16
-62 44 -35 49 -87 82 -184 116 -51 18 -90 39 -120 67 -72 67 -96 78 -169 78
-36 0 -98 -7 -138 -15 -70 -15 -116 -12 -128 6 -3 5 7 31 22 57 l27 48 -28 58
c-17 36 -27 74 -27 99 1 68 -29 105 -123 152 -33 17 -93 49 -133 73 -41 23
-80 42 -87 42 -8 0 -17 5 -20 10 -10 16 -101 12 -115 -5 -7 -8 -16 -12 -21 -9
-5 3 -27 -14 -48 -36 -47 -50 -71 -49 -140 5 -24 19 -48 35 -53 35 -6 0 -19
-11 -30 -25 -11 -14 -24 -23 -29 -20 -5 4 -9 -31 -10 -82 -1 -114 1 -144 13
-167 5 -10 11 -39 13 -65 2 -25 9 -59 16 -76 6 -16 13 -36 15 -43 3 -17 50
-119 70 -152 8 -14 21 -39 29 -55 7 -17 23 -39 34 -49 12 -11 21 -24 21 -31 0
-17 61 -70 96 -84 16 -6 41 -22 55 -34 14 -12 31 -23 39 -25 8 -2 22 -10 30
-17 8 -7 32 -16 54 -19 21 -4 43 -9 50 -13 6 -4 16 -8 23 -9 6 -1 31 -5 54 -8
24 -3 53 -16 67 -28 13 -13 31 -22 41 -20 10 1 30 -9 44 -22 15 -14 30 -25 32
-25 17 0 93 -41 109 -59 10 -12 22 -19 26 -17 4 3 13 -2 20 -10 7 -8 18 -15
26 -15 7 0 21 -17 30 -37 19 -42 71 -96 85 -87 5 3 9 1 9 -3 0 -11 82 -8 135
4 50 12 65 7 65 -20 0 -18 2 -19 10 -7 8 12 10 9 10 -13 0 -32 25 -65 33 -44
3 6 6 2 6 -11 1 -12 7 -21 14 -20 6 2 11 -2 10 -9 -1 -6 14 -18 35 -26 20 -8
53 -31 72 -50 23 -24 37 -31 42 -24 4 7 8 0 8 -16 0 -19 11 -40 35 -63 19 -18
35 -31 35 -29 0 3 14 -2 31 -11 20 -10 28 -11 24 -3 -6 9 -4 10 6 3 8 -5 18
-9 23 -9 17 0 45 -60 45 -97 1 -21 5 -38 9 -38 5 0 9 -7 9 -15 0 -8 -4 -12 -8
-10 -3 3 -12 -2 -19 -10 -11 -13 -15 -13 -29 -2 -25 22 -47 27 -60 14 -7 -7
-11 -7 -9 -2 2 6 -1 10 -7 10 -5 0 -9 -3 -7 -8 1 -4 -10 -12 -25 -18 -25 -10
-26 -12 -9 -18 23 -9 31 -48 14 -70 -11 -14 -11 -14 3 -3 13 10 19 9 29 -3 9
-11 16 -12 25 -5 8 7 15 7 19 1 3 -5 13 -8 21 -7 19 3 66 47 60 57 -3 4 3 6
12 4 10 -1 17 -8 15 -14 -1 -6 2 -10 6 -9 10 4 72 -48 72 -59 0 -5 9 -15 20
-23 11 -8 20 -19 20 -25 0 -6 9 -21 20 -33 11 -11 44 -58 74 -104 30 -46 65
-92 77 -102 27 -23 146 -82 183 -92 14 -3 26 -10 26 -14 0 -4 15 -8 34 -8 19
0 39 -3 45 -6 6 -4 43 -9 82 -12 83 -6 92 -9 160 -70 48 -43 54 -45 93 -38 22
3 65 17 93 30 68 29 130 38 168 24 43 -16 93 -67 106 -109 30 -90 121 -255
171 -309 112 -119 146 -146 278 -226 77 -47 150 -114 150 -138 0 -9 -5 -27
-11 -40 -11 -24 -96 -96 -139 -118 -14 -7 -41 -26 -61 -41 -50 -39 -143 -87
-279 -144 -63 -27 -149 -66 -190 -88 -41 -22 -97 -52 -125 -66 -63 -33 -211
-131 -288 -191 -83 -64 -120 -90 -128 -90 -4 0 -31 -15 -59 -34 -28 -19 -95
-50 -148 -70 -356 -131 -452 -163 -737 -247 -38 -12 -97 -30 -130 -40 -33 -10
-168 -46 -300 -79 -235 -60 -243 -61 -375 -62 -130 0 -232 14 -305 42 -17 6
-95 22 -175 36 -80 13 -152 26 -160 29 -8 3 -77 14 -152 25 -143 21 -188 34
-278 85 -44 25 -66 31 -110 30 -30 -1 -65 -7 -77 -13 -13 -7 -23 -10 -23 -7 0
6 -17 -7 -54 -42 -13 -12 -27 -19 -30 -16 -3 4 -6 1 -6 -6 0 -7 -22 -35 -50
-63 -27 -28 -50 -59 -50 -70 0 -10 -4 -17 -9 -14 -13 8 -18 -31 -19 -137 0
-51 -5 -111 -11 -134 -14 -50 -23 -231 -13 -247 13 -20 31 -80 38 -121 10 -71
-36 -109 -195 -159 -147 -46 -243 -96 -325 -167 -13 -12 -26 -19 -28 -18 -8 9
-78 -66 -78 -84 0 -37 42 -106 70 -116 20 -6 32 -21 40 -47 12 -37 12 -38 -22
-68 -35 -31 -190 -133 -195 -129 -1 1 -32 -18 -69 -42 -37 -25 -75 -45 -86
-45 -11 0 -38 -13 -61 -29 -64 -43 -130 -53 -369 -51 -117 1 -278 2 -358 1
-80 -1 -156 1 -170 4 -14 3 -35 7 -48 9 -30 6 -174 61 -227 86 -59 28 -133 60
-139 60 -2 0 -17 5 -33 12 -15 6 -33 12 -40 14 -30 6 -89 28 -100 37 -7 5 -13
6 -13 3 0 -4 -10 -2 -21 5 -12 6 -36 13 -53 16 -17 2 -38 7 -46 10 -8 3 -24 8
-35 10 -128 23 -198 41 -296 79 -114 44 -294 88 -401 99 -29 3 -81 12 -117 21
-39 9 -135 16 -240 19 -328 8 -398 30 -522 163 -85 91 -130 124 -259 188 -51
25 -104 54 -119 64 -14 11 -57 31 -96 44 -91 31 -180 73 -195 91 -7 8 -18 15
-24 15 -7 0 -29 17 -49 38 -30 31 -35 40 -25 51 7 8 8 11 2 8 -7 -4 -16 10
-24 38 -7 25 -16 42 -20 40 -11 -7 -47 45 -61 84 -8 23 -7 36 5 59 40 77 202
172 319 187 18 2 91 14 162 26 72 11 141 21 155 21 14 0 32 4 40 8 8 4 29 10
45 13 54 10 73 15 92 25 10 6 34 11 53 13 19 2 40 6 45 10 6 4 28 9 50 12 22
3 53 10 68 16 15 6 27 9 27 7 0 -8 212 111 290 163 30 20 70 50 89 66 18 17
37 29 42 28 5 -2 9 4 9 13 0 8 4 12 10 9 6 -4 9 15 9 49 -1 31 -5 56 -9 56 -5
0 -15 19 -23 43 -26 78 16 175 110 255 43 36 72 55 168 116 53 32 63 49 44 72
-15 19 -82 49 -129 59 -43 9 -140 53 -140 64 0 11 -68 40 -109 46 -19 3 -37 8
-41 10 -3 2 -33 6 -65 10 -33 4 -118 19 -190 35 -140 31 -146 32 -335 55 -69
9 -132 18 -140 20 -8 3 -33 7 -55 11 -46 7 -168 38 -211 54 -31 12 -243 114
-379 182 -83 42 -141 81 -161 107 -15 19 -8 62 11 77 8 6 15 19 15 28 0 10 5
14 10 11 6 -4 10 5 10 20 0 14 -4 24 -9 20 -5 -3 -17 3 -27 12 -10 10 -18 16
-18 14 -1 -3 -32 7 -71 21 -112 42 -169 62 -182 64 -26 4 -51 26 -103 91 -123
151 -193 170 -605 165 -57 -1 -131 2 -212 7 -6 1 -27 23 -46 49 -49 69 -81 76
-300 68 -94 -4 -269 -9 -387 -11 -490 -11 -679 -16 -696 -19 -47 -9 -142 -40
-188 -62 -47 -22 -64 -24 -203 -24 l-153 0 0 -3185 0 -3185 20480 0 20480 0 0
3912 c0 2151 -3 3908 -7 3905 -3 -4 -11 -3 -17 2 -22 17 -71 20 -90 5 -11 -8
-30 -14 -44 -14 -13 0 -21 -4 -18 -9 5 -8 -71 -37 -86 -33 -5 1 -29 -14 -54
-33 -25 -19 -54 -35 -65 -35 -10 0 -28 -9 -40 -21 -12 -12 -27 -22 -34 -23 -7
-1 -20 -8 -28 -14 -13 -11 -19 -9 -36 9 -12 13 -21 26 -21 30 0 4 -7 10 -16
13 -10 4 -13 2 -8 -7 6 -9 5 -9 -8 0 -19 17 -32 4 -15 -15 8 -11 8 -14 0 -9
-12 7 -12 -10 0 -29 11 -19 -1 -21 -53 -10 -55 11 -70 4 -73 -32 0 -11 -4 -20
-7 -20 -41 4 -77 -4 -77 -17 0 -12 3 -12 16 -3 9 7 13 8 8 3 -4 -4 0 -16 9
-26 15 -17 15 -18 -5 -14 -33 6 -15 -13 32 -34 24 -11 49 -28 57 -38 26 -31
41 -63 35 -73 -14 -23 28 -71 83 -96 18 -8 31 -18 28 -23 -3 -4 8 -21 24 -36
35 -34 46 -66 55 -160 4 -38 11 -77 16 -86 4 -9 6 -19 2 -22 -3 -4 1 -17 9
-29 8 -13 14 -34 13 -48 -2 -14 1 -29 5 -35 9 -12 7 -56 -4 -73 -4 -7 -5 -25
-2 -39 4 -13 2 -30 -3 -37 -5 -6 -12 -24 -15 -39 -8 -45 -17 -67 -27 -67 -5 0
-9 -9 -9 -20 0 -11 -10 -36 -21 -57 -29 -52 -49 -79 -49 -68 0 5 -8 -5 -17
-22 -42 -78 -116 -145 -258 -237 -33 -22 -80 -52 -105 -69 -84 -55 -205 -116
-295 -147 -122 -43 -175 -71 -264 -138 -94 -71 -224 -157 -316 -208 -73 -42
-98 -54 -229 -113 -45 -20 -99 -46 -122 -58 -40 -21 -237 -211 -434 -419 -58
-61 -118 -119 -135 -130 -16 -10 -38 -26 -47 -34 -9 -9 -34 -22 -55 -29 -78
-28 -231 -98 -562 -257 -106 -52 -196 -94 -199 -94 -16 0 -355 -166 -398 -195
-41 -28 -172 -71 -424 -139 -294 -79 -309 -81 -697 -77 -113 1 -226 -4 -300
-13 -65 -8 -172 -20 -238 -26 -222 -21 -366 -46 -445 -78 -23 -9 -70 -55 -70
-68 0 -3 -16 -22 -35 -41 -19 -19 -35 -31 -35 -27 0 5 -20 -11 -44 -35 -42
-41 -44 -46 -42 -95 2 -47 0 -54 -32 -83 -54 -49 -328 -152 -516 -192 -124
-27 -197 -50 -356 -111 -69 -26 -163 -60 -210 -75 -103 -33 -141 -52 -158 -77
-7 -10 -18 -16 -23 -13 -5 4 -9 -1 -9 -10 0 -9 -4 -14 -8 -11 -5 3 -19 -5 -30
-17 -12 -12 -30 -31 -42 -41 -11 -11 -20 -29 -21 -40 -1 -33 -8 -69 -20 -98
-6 -15 -8 -40 -5 -54 7 -27 124 -151 139 -146 4 1 7 -5 7 -13 0 -9 7 -18 15
-21 9 -4 13 -17 11 -39 -1 -19 1 -32 6 -29 4 3 8 -2 8 -11 0 -9 -4 -14 -9 -11
-5 3 -9 -10 -9 -29 0 -19 4 -38 9 -41 5 -3 9 -12 9 -20 0 -8 -4 -12 -10 -9 -6
3 -10 -4 -10 -18 0 -36 -38 -64 -155 -118 -59 -27 -120 -59 -136 -71 -16 -13
-42 -33 -59 -46 -16 -13 -30 -31 -30 -39 0 -9 -3 -14 -6 -11 -3 3 -23 -11 -46
-32 -63 -61 -194 -133 -418 -231 -93 -40 -155 -61 -535 -181 -327 -103 -451
-146 -550 -193 -81 -39 -237 -87 -388 -120 -12 -2 -65 -15 -117 -29 -135 -35
-145 -36 -450 -42 -241 -6 -298 -4 -455 15 -238 27 -426 78 -483 131 l-20 19
35 92 c19 51 50 113 69 137 40 53 49 80 39 125 -10 45 -10 84 -1 148 5 35 3
72 -4 99 -13 49 -9 77 17 105 10 11 29 44 42 74 33 77 24 137 -34 227 -69 108
-74 113 -113 130 -20 8 -49 26 -63 40 -46 44 -156 58 -237 30 -55 -20 -256
-157 -369 -252 -47 -39 -139 -83 -223 -107 -30 -9 -95 -28 -145 -43 -108 -32
-143 -29 -246 21 -58 28 -86 35 -132 35 -32 0 -67 4 -77 10 -23 12 -53 69 -73
141 -23 77 -33 84 -128 81 -64 -1 -93 -8 -148 -32 -38 -16 -77 -30 -87 -30
-26 0 -154 43 -149 50 2 3 -5 7 -16 7 -10 1 -37 14 -58 30 -30 21 -42 39 -51
73 -19 74 -65 160 -85 160 -3 0 -23 13 -43 30 -141 114 -194 159 -244 206 -37
36 -89 70 -151 100 -88 42 -97 45 -133 35 -34 -10 -45 -7 -104 22 l-65 32
-165 0 c-91 0 -253 -4 -360 -8 -131 -6 -251 -5 -365 3 -259 18 -311 20 -720
22 -320 1 -392 -2 -455 -16 -101 -22 -180 -20 -297 5 -117 26 -158 46 -159 80
-1 24 53 92 66 84 14 -9 11 97 -4 114 -20 22 -30 67 -17 75 15 10 14 85 -1 99
-33 30 -157 128 -179 140 -32 17 -133 84 -189 126 -56 41 -113 67 -176 81 -26
6 -54 16 -61 22 -7 5 -33 8 -57 6 -25 -3 -50 0 -57 6 -9 8 -10 7 -4 -3 6 -10
4 -12 -4 -7 -38 24 -23 91 27 124 15 9 33 23 41 30 7 7 21 10 30 8 46 -14 111
-25 148 -24 22 0 46 -3 52 -6 6 -4 44 -3 84 3 39 6 89 12 109 14 21 2 41 7 45
10 3 4 13 7 20 7 8 0 39 11 69 25 30 14 57 25 60 25 11 0 98 40 234 110 143
72 272 166 340 245 14 16 36 42 50 57 l25 27 44 -20 c36 -17 56 -20 99 -15
100 12 153 47 317 212 151 151 222 202 267 191 10 -3 15 -1 12 4 -3 6 6 8 20
5 14 -3 26 -1 26 3 0 5 14 7 32 6 51 -4 119 21 201 75 42 27 80 50 84 50 4 0
23 -15 41 -34 31 -32 36 -34 95 -32 63 3 160 38 193 70 12 12 40 16 129 15 63
0 117 -4 120 -8 8 -13 97 -24 104 -13 3 6 20 12 36 15 17 3 55 17 85 31 103
49 153 31 185 -65 9 -26 24 -51 33 -55 9 -4 55 -6 102 -5 47 1 104 -4 127 -10
52 -14 86 -3 131 45 39 42 102 124 102 134 0 4 28 27 60 52 33 25 73 55 89 67
15 12 43 46 61 75 19 32 56 71 92 98 124 93 217 191 308 325 18 28 44 63 57
79 30 36 117 106 132 106 6 0 11 4 11 9 0 5 14 14 30 20 17 5 38 17 46 26 9 8
19 13 24 10 4 -3 13 2 20 10 22 27 99 19 143 -14 38 -29 46 -31 80 -16 13 5
27 0 50 -22 62 -57 63 -57 99 -35 18 11 46 22 61 26 16 4 38 16 50 27 29 27
70 46 91 43 21 -3 86 -46 86 -57 0 -5 -6 -5 -12 -1 -10 5 -10 4 -2 -5 6 -6 46
-13 90 -16 73 -3 162 -24 208 -47 14 -7 16 -6 10 4 -6 10 -5 11 7 1 17 -14
129 -19 174 -8 45 12 84 33 148 82 31 25 90 60 130 78 85 40 125 76 192 170
180 256 197 272 240 225 10 -11 24 -20 31 -20 21 0 59 -60 94 -147 17 -45 42
-90 53 -101 l22 -21 44 21 c46 21 111 18 111 -5 0 -8 3 -8 9 1 7 11 11 11 23
-2 9 -8 19 -12 23 -8 4 4 5 2 3 -4 -2 -6 19 -31 45 -56 58 -54 66 -82 54 -187
-10 -84 -4 -133 19 -152 8 -7 36 -12 62 -12 57 0 182 23 200 36 7 6 46 11 87
12 67 1 78 5 125 37 77 54 189 165 257 255 12 16 36 44 53 61 16 18 30 36 30
41 0 5 9 13 20 16 11 3 20 11 20 17 0 9 58 81 128 158 12 14 22 28 22 32 0 3
18 26 40 50 21 23 54 71 71 106 18 35 36 65 41 68 5 3 6 10 3 15 -4 5 -1 9 5
9 6 0 9 4 6 8 -2 4 -1 14 4 22 9 15 -14 45 -29 35 -5 -3 -12 -1 -16 4 -3 6
-13 7 -22 4 -10 -4 -14 -2 -10 4 4 6 -6 9 -24 8 -20 -1 -33 4 -37 14 -3 9 -10
19 -15 23 -6 3 -10 21 -11 40 -1 30 -5 34 -44 46 -23 8 -40 18 -37 22 3 5 0
12 -6 15 -6 4 -8 17 -5 29 3 11 1 50 -4 86 -7 50 -6 85 7 152 20 104 15 119
-54 163 -80 51 -87 55 -119 55 -39 0 -52 15 -102 121 -27 57 -51 94 -72 109
-35 25 -104 38 -122 22 -7 -5 -48 -28 -90 -51 -80 -42 -150 -89 -228 -151 -83
-67 -117 -83 -164 -78 -23 3 -59 13 -79 23 -78 37 -149 -10 -278 -182 -38 -50
-97 -122 -132 -160 -36 -37 -87 -95 -114 -128 -48 -58 -108 -113 -165 -149
-15 -10 -62 -22 -105 -28 -52 -6 -85 -15 -98 -28 -11 -10 -50 -40 -86 -67 -37
-26 -89 -77 -118 -113 -119 -151 -107 -141 -240 -204 -29 -14 -62 -26 -72 -26
-10 0 -21 -4 -24 -10 -3 -5 -24 -10 -46 -10 -36 0 -45 -7 -40 -34 1 -5 -8 -6
-20 -3 -37 10 -133 -11 -151 -33 -21 -26 -23 -26 -62 13 -28 28 -35 45 -43
104 -16 102 -41 136 -128 168 -87 32 -107 49 -148 122 -18 32 -40 59 -49 61
-27 5 -101 -71 -190 -195 -151 -210 -154 -213 -252 -261 -78 -38 -102 -57
-196 -152 -110 -112 -177 -204 -270 -370 -80 -143 -107 -180 -134 -180 -13 0
-29 7 -36 14 -16 20 -50 7 -109 -43 -66 -55 -84 -62 -131 -55 -60 10 -74 37
-67 124 5 56 14 85 52 157 53 101 59 110 101 173 47 69 82 148 99 225 9 39 21
80 27 91 12 26 7 89 -16 167 -9 32 -16 82 -16 112 0 43 -5 59 -26 84 -48 58
-112 31 -239 -98 l-70 -72 -65 7 c-64 6 -67 5 -165 -45 -55 -27 -134 -62 -175
-77 -125 -44 -182 -79 -250 -155 -34 -39 -131 -127 -214 -197 -83 -69 -153
-129 -154 -134 -7 -16 -61 -38 -94 -38 -44 0 -77 -22 -183 -123 -49 -48 -97
-87 -105 -87 -22 0 -85 67 -105 110 -9 19 -27 50 -40 69 -14 19 -26 48 -26 65
-3 66 -8 93 -23 137 -22 63 -65 138 -87 152 -11 7 -19 17 -19 23 0 6 -18 24
-41 40 -22 15 -55 48 -72 73 -51 75 -102 120 -145 127 -32 5 -39 3 -39 -11 0
-19 27 -48 110 -118 48 -40 57 -54 57 -81 0 -46 -26 -116 -56 -151 -44 -52
-134 -142 -177 -177 -22 -18 -61 -53 -86 -77 -75 -71 -86 -75 -192 -81 -86 -5
-101 -8 -123 -29 -14 -14 -26 -30 -26 -38 0 -7 -9 -13 -20 -13 -35 0 -77 -27
-99 -65 -11 -19 -29 -38 -38 -42 -10 -3 -33 -19 -51 -35 -18 -15 -43 -28 -56
-28 -13 0 -40 -7 -59 -15 -55 -23 -126 -19 -183 10 -60 31 -87 27 -244 -30
-267 -98 -296 -114 -326 -170 -11 -22 -33 -46 -50 -54 -49 -23 -70 -49 -89
-109 -44 -138 -62 -160 -138 -168 -49 -5 -110 -18 -152 -32 -16 -6 -58 -16
-93 -23 -78 -15 -132 -50 -178 -115 -19 -27 -42 -55 -51 -62 -23 -16 -77 -15
-138 3 -64 20 -100 13 -90 -18 4 -12 9 -47 12 -77 4 -51 1 -59 -31 -104 -20
-27 -56 -71 -81 -97 -25 -26 -45 -50 -45 -53 0 -12 -95 -101 -151 -143 -51
-37 -61 -41 -100 -37 -61 7 -205 66 -308 127 -72 42 -95 50 -141 52 -37 1 -69
10 -96 25 l-40 23 -64 -52 c-36 -29 -85 -63 -110 -77 -56 -29 -70 -41 -93 -77
-33 -51 -89 -107 -124 -123 -32 -16 -35 -15 -54 2 -30 27 -79 102 -79 122 -1
31 -34 59 -76 66 -22 3 -44 3 -47 0 -17 -18 -195 -21 -225 -5 -26 14 -27 19
-42 191 -7 80 -17 140 -24 148 -24 25 -73 24 -133 -2 -32 -13 -78 -27 -102
-30 -23 -4 -57 -17 -75 -30 -21 -17 -59 -29 -121 -39 -134 -23 -162 -31 -291
-93 -143 -68 -267 -114 -306 -114 -41 0 -64 29 -72 93 -16 124 -52 177 -131
191 -46 9 -193 62 -211 77 -58 48 -73 113 -37 166 43 63 29 76 -116 117 -52
15 -123 42 -157 61 -35 20 -89 45 -120 56 -36 14 -79 42 -120 79 -56 51 -72
60 -146 79 -46 12 -104 26 -130 31 -26 5 -64 20 -85 34 -21 14 -43 26 -50 26
-38 0 -55 66 -30 118 23 45 2 89 -53 114 -30 14 -172 59 -235 75 -11 2 -29 9
-40 14 -87 40 -200 50 -295 28 -66 -16 -188 -13 -253 6 -31 9 -108 43 -171 75
-113 59 -156 73 -247 85 -27 3 -66 19 -92 36 -27 18 -69 34 -106 40 -77 14
-101 33 -108 86 -4 34 0 51 26 96 17 30 31 68 31 84 0 29 -26 63 -48 63 -6 0
-36 16 -66 35 -30 19 -63 35 -74 35 -10 0 -29 12 -43 26 -13 15 -43 35 -66 44
-41 19 -61 49 -47 72 15 25 168 223 222 288 30 36 62 74 71 85 9 11 27 36 41
55 38 54 234 293 434 529 99 118 221 263 269 324 48 60 110 135 137 166 139
160 312 366 370 440 36 46 113 142 173 213 59 72 110 141 113 154 4 15 -2 36
-17 61 -22 35 -24 48 -24 187 0 91 -4 151 -10 153 -6 2 -60 -50 -121 -114z"/>
<path d="M39719 7847 c-1 -4 -2 -11 -3 -16 -2 -15 -16 -26 -16 -13 0 7 -4 12
-10 12 -5 0 -9 -3 -9 -7 4 -26 -2 -63 -10 -58 -8 4 -8 -72 -1 -290 1 -34 17
-43 61 -35 31 6 53 21 96 64 33 34 53 62 50 70 -3 8 1 20 9 27 11 9 12 14 3
20 -10 6 -10 11 0 22 8 10 8 16 1 19 -6 2 -13 17 -15 33 -7 41 -24 71 -62 111
-32 34 -63 45 -63 22 0 -8 -7 -5 -15 6 -8 11 -16 17 -16 13z"/>
<path d="M21627 7643 c-14 -13 -6 -37 26 -79 53 -70 136 -82 265 -38 108 37
118 49 51 63 -107 22 -155 33 -191 43 -20 6 -59 9 -87 6 -28 -3 -48 -1 -45 4
6 10 -10 11 -19 1z"/>
<path d="M40108 7563 c7 -3 16 -2 19 1 4 3 -2 6 -13 5 -11 0 -14 -3 -6 -6z"/>
<path d="M10131 7484 c0 -11 3 -14 6 -6 3 7 2 16 -1 19 -3 4 -6 -2 -5 -13z"/>
<path d="M17865 7470 c-3 -5 -13 -10 -21 -10 -24 0 -147 -62 -196 -99 -104
-80 -192 -342 -213 -642 -11 -148 17 -203 117 -231 91 -25 179 7 249 91 40 48
44 62 64 197 19 122 32 174 91 366 l46 146 -17 59 c-9 32 -24 67 -33 77 -10
11 -11 16 -4 12 7 -4 12 -2 12 4 0 7 -7 9 -16 6 -9 -3 -29 3 -44 14 -18 13
-31 16 -35 10z"/>
<path d="M40398 7253 c7 -3 16 -2 19 1 4 3 -2 6 -13 5 -11 0 -14 -3 -6 -6z"/>
<path d="M10190 6926 c0 -9 5 -14 10 -11 6 3 10 -1 10 -10 0 -9 5 -13 10 -10
6 3 10 -1 10 -10 0 -9 -4 -14 -8 -11 -5 3 -9 -1 -9 -9 0 -8 3 -13 6 -10 9 9
71 -58 71 -77 0 -10 5 -18 10 -18 6 0 10 -4 10 -10 0 -5 -7 -10 -15 -10 -8 0
-15 5 -15 11 0 5 -4 8 -9 4 -22 -13 76 -131 135 -161 63 -33 230 -54 231 -29
0 5 4 26 8 45 4 19 8 41 9 47 4 21 48 63 59 56 6 -3 7 -1 3 6 -4 6 -13 8 -19
4 -7 -3 -4 2 5 13 14 16 15 23 5 34 -10 10 -9 11 3 5 10 -6 8 -1 -4 13 -11 12
-15 22 -11 22 5 0 -7 17 -26 37 -18 20 -25 31 -14 23 20 -14 20 -14 1 7 -18
22 -43 22 -30 1 4 -6 2 -8 -3 -5 -6 4 -16 0 -23 -8 -7 -8 -17 -12 -23 -8 -5 3
-7 1 -4 -4 4 -6 -2 -18 -12 -27 -16 -15 -20 -15 -31 -1 -7 8 -16 13 -20 10 -4
-3 -13 2 -20 9 -6 8 -21 13 -32 11 -11 -3 -18 -1 -14 2 9 9 -79 33 -136 37
-26 2 -54 9 -63 16 -8 7 -15 9 -15 5 0 -5 -9 0 -20 10 -19 17 -20 17 -20 1z"/>
<path d="M10743 6707 c-3 -5 3 -8 13 -7 31 4 37 1 25 -13 -8 -10 -3 -22 23
-50 18 -20 30 -40 27 -44 -3 -4 3 0 15 10 17 14 21 14 21 2 0 -8 -4 -12 -9 -9
-4 3 -8 0 -8 -5 0 -6 7 -11 15 -11 17 0 16 30 -2 52 -6 7 -9 21 -8 31 2 10 -3
17 -11 17 -9 0 -12 5 -9 10 4 6 3 10 -2 9 -20 -4 -44 2 -39 9 2 4 -7 8 -20 8
-14 0 -28 -4 -31 -9z"/>
<path d="M24132 3535 c0 -16 2 -22 5 -12 2 9 2 23 0 30 -3 6 -5 -1 -5 -18z"/>
</g>
</svg>
